<?xml version="1.0" standalone="no"?>
<!DOCTYPE svg PUBLIC "-//W3C//DTD SVG 1.1//EN" "http://www.w3.org/Graphics/SVG/1.1/DTD/svg11.dtd" >
<svg xmlns="http://www.w3.org/2000/svg">
<metadata></metadata>
<defs>
<font id="KaushanScriptRegular" horiz-adv-x="1314" >
<font-face units-per-em="2048" ascent="1638" descent="-410" />
<missing-glyph horiz-adv-x="487" />
<glyph unicode="&#xfb01;" horiz-adv-x="1191" d="M-385 -653q0 14 8.5 30.5t18.5 22.5q29 -34 76 -54t98 -20q105 0 182 102.5t176 368.5q112 304 305 975q-39 -2 -196 -18q-19 19 -19 49q110 31 240 51q217 645 555 645q49 0 150 -42t116 -42q25 14 69 25.5t74 11.5q24 0 64 -27q-42 -65 -66 -174q-52 -152 -108 -196 q-25 0 -25 59q0 30 -33.5 78.5t-33.5 75.5q0 22 10 88q-66 4 -94 4q-61 0 -115.5 -26.5t-96 -68.5t-80 -106t-66 -128t-54.5 -144q188 12 313 12q189 0 283 -18q22 -22 31 -43q-86 -114 -167.5 -297.5t-123 -319t-47.5 -190.5q-2 -13 -2.5 -26t-1 -19.5t-1 -12.5t-2 -8 t-5.5 -2q-10 0 -32.5 10.5t-49.5 30.5t-47.5 55.5t-20.5 77.5q0 120 61 328.5t132 310.5q-143 10 -263 10q-61 0 -90 -2q-81 -255 -141 -437t-120 -346t-106 -271t-96.5 -197t-94 -140t-95.5 -85.5t-103.5 -47.5t-117.5 -12q-144 0 -248 99z" />
<glyph unicode="&#xfb02;" horiz-adv-x="1202" d="M-385 -653q0 14 8.5 30.5t18.5 22.5q29 -34 76 -54t98 -20q105 0 182 102.5t176 368.5q112 304 305 975q-39 -2 -196 -18q-19 19 -19 49q128 36 240 53q217 643 555 643q17 0 42.5 -5.5t48 -12t56 -19t52 -20t52 -21t40.5 -16.5q94 183 186 295q48 -9 129.5 -55.5 t99.5 -73.5q-160 -189 -280 -405.5t-221 -497.5q-177 -491 -177 -758q0 -45 3 -60q-27 3 -48.5 14t-27.5 25q-4 10 -23 30.5t-33 29.5q-19 12 -31 64t-12 118q0 121 79.5 377.5t168.5 476.5t154 354q-74 21 -135 21t-115.5 -26.5t-96 -68.5t-80 -106t-66 -128t-54.5 -144 q111 8 184 10q-22 -19 -40.5 -54t-24.5 -57h-62q-61 0 -90 -2q-81 -255 -141 -437t-120 -346t-106 -271t-96.5 -197t-94 -140t-95.5 -85.5t-103.5 -47.5t-117.5 -12q-144 0 -248 99z" />
<glyph unicode="&#xfb03;" horiz-adv-x="1757" d="M-391 -653q0 14 8 30.5t18 22.5q29 -34 76.5 -54t98.5 -20q105 0 182 102.5t176 368.5q101 272 295 936q-89 -12 -189 -35q-7 7 -12.5 31.5t-5.5 38.5q104 23 229 43q51 166 106 291.5t121.5 220.5t146 144t169.5 49q118 0 283 -127q121 155 272 155q33 0 82 -20 t90 -44.5t80 -44.5t55 -20q25 14 69.5 25.5t74.5 11.5q22 0 63 -27q-40 -63 -65 -174q-52 -151 -109 -196q-25 0 -25 59q0 30 -33.5 78.5t-33.5 75.5q0 22 10 88q-73 49 -135 49t-117.5 -41.5t-101 -118t-80.5 -158.5t-70 -190q156 4 238 4q195 0 356 -20q22 -22 31 -43 q-86 -114 -167.5 -297.5t-123 -319t-47.5 -190.5q-2 -13 -2.5 -26t-1 -19.5t-1 -12.5t-2 -8t-5.5 -2q-10 0 -32.5 10.5t-49.5 30.5t-47.5 55.5t-20.5 77.5q0 120 61 328.5t132 310.5q-121 8 -352 8q-75 -250 -135.5 -437.5t-118.5 -347t-105.5 -270t-98 -197.5t-95.5 -139 t-98 -86t-105.5 -46.5t-118.5 -12.5q-77 0 -148.5 32.5t-123.5 90.5q-65 -67 -136.5 -95t-162.5 -28q-144 0 -248 99zM188 -590q35 -40 78.5 -62t114.5 -22q105 0 182 102.5t176 368.5q102 280 308 983q-157 -3 -322 -16q-187 -606 -306.5 -912t-230.5 -442zM754 850 q209 25 323 33q87 285 189 442q-40 26 -80.5 38.5t-61.5 12.5q-103 0 -181.5 -120.5t-188.5 -405.5z" />
<glyph unicode="&#xfb04;" horiz-adv-x="1763" d="M-391 -653q0 14 8 30.5t18 22.5q29 -34 76.5 -54t98.5 -20q105 0 182 102.5t176 368.5q35 95 70 199t75 234.5t69.5 230t80.5 272.5q-89 -12 -189 -35q-7 7 -12.5 31.5t-5.5 38.5q136 30 229 45q51 166 106 290.5t121.5 219.5t146 144t169.5 49q70 0 138.5 -34.5 t144.5 -92.5q121 155 272 155q65 0 161 -41t167 -100q93 184 186 297q48 -9 130 -55.5t100 -73.5q-160 -189 -280.5 -405.5t-221.5 -497.5q-86 -238 -131 -433t-45 -325q0 -50 2 -60q-29 3 -48.5 14.5t-28 24.5t-23 30.5t-31.5 29.5q-19 12 -31 64t-12 118q0 55 16.5 139 t44 178.5t63 200.5t74 206.5t77.5 195.5t72 169.5t58 125.5q-88 59 -176 59q-50 0 -96.5 -29t-83.5 -75t-72.5 -114.5t-62 -136.5t-54.5 -153q136 4 209 4l-67 -119q-59 2 -176 2q-60 -199 -110 -357t-98 -298.5t-89 -246.5t-82.5 -196.5t-78 -154t-76.5 -114.5t-77.5 -82 t-81 -51t-87 -28t-95.5 -8q-77 0 -148.5 32.5t-123.5 90.5q-44 -45 -92 -72.5t-97.5 -39t-109.5 -11.5q-144 0 -248 99zM188 -590q35 -40 78.5 -62t114.5 -22q105 0 182 102.5t176 368.5q102 280 308 983q-157 -3 -322 -16q-126 -406 -213 -657t-167.5 -427.5t-156.5 -269.5 zM754 850q209 25 323 33q87 285 189 442q-21 14 -44.5 24.5t-42.5 16t-33 8t-22 2.5q-36 0 -68.5 -14.5t-63.5 -46.5t-58 -72.5t-58 -104t-58.5 -129t-63.5 -159.5z" />
<glyph horiz-adv-x="0" />
<glyph horiz-adv-x="2048" />
<glyph horiz-adv-x="0" />
<glyph horiz-adv-x="0" />
<glyph unicode="&#xd;" horiz-adv-x="909" />
<glyph unicode=" "  horiz-adv-x="487" />
<glyph unicode="&#x09;" horiz-adv-x="487" />
<glyph unicode="&#xa0;" horiz-adv-x="487" />
<glyph unicode="!" horiz-adv-x="614" d="M123 -59q0 65 27.5 145t68.5 80q55 0 114.5 -39t88.5 -90q-22 -24 -52 -78t-58 -85.5t-64 -31.5q-43 0 -84 37t-41 62zM293 385q0 109 102 386t234.5 535t208.5 314q64 -13 141 -82.5t86 -120.5q-219 -180 -401 -506.5t-246 -685.5q-31 8 -49 16t-38 25t-29 46t-9 73z " />
<glyph unicode="&#x22;" horiz-adv-x="751" d="M469 1116q68 194 68 373q0 109 -25 217q98 -6 179.5 -42.5t107.5 -86.5q-72 -394 -297 -539q-13 11 -23 34t-10 44zM838 1116q67 191 67 373q0 113 -24 217q98 -6 179 -42t107 -87q-72 -394 -297 -539q-12 11 -22 34t-10 44z" />
<glyph unicode="#" horiz-adv-x="1384" d="M231 457q0 18 15 69q90 -12 145 -12q150 0 238 4q13 34 34 100.5t31 94.5q-101 -8 -182 -8q-60 0 -90.5 25.5t-30.5 70.5q0 29 15 69q86 -12 143 -12q122 0 194 4q140 434 226 778q56 0 105.5 -28.5t78.5 -89.5q-135 -380 -240 -654l185 11q122 381 219 761 q56 0 105.5 -28.5t78.5 -89.5q-144 -401 -231 -633q167 10 200 10q42 0 67.5 -32t29.5 -113q-85 10 -142 10q-102 0 -206 -8q-10 -25 -26.5 -67.5t-30.5 -77t-27 -64.5q34 2 78 4t67 3t33 1q42 0 66 -32t28 -113q-83 10 -139 10q-94 0 -187 -8q-215 -516 -360 -729 q-44 23 -53 88q112 208 266 630q-75 -4 -213 -16q-204 -493 -348 -702q-45 23 -54 88q106 195 256 602q-153 -13 -221 -13q-60 0 -91.5 26t-31.5 71zM778 526q44 1 205 11q4 11 30 87t40 119q-132 -12 -195 -16q-55 -143 -80 -201z" />
<glyph unicode="$" horiz-adv-x="1368" d="M215 330q0 49 27.5 114t87.5 129q0 -68 51 -155.5t147 -159.5q66 -52 150 -90q88 261 149 481q-174 97 -252.5 193t-78.5 215q0 181 133 302.5t350 121.5q19 0 59 -4q39 189 45 229q144 -41 189 -96l-53 -170q129 -44 268 -125q6 -58 6 -70q0 -71 -33 -133t-82 -84 q-68 122 -229 191q-55 -177 -145 -449l24 -12q178 -97 262 -201t84 -252q0 -202 -130 -324t-339 -122q-105 0 -223 41q-70 -152 -129 -256q-52 10 -66 73q41 60 105 217q-160 71 -268.5 178t-108.5 218zM598 1139q0 -114 283 -295q49 182 108 420q-68 10 -119 10 q-113 0 -192.5 -38t-79.5 -97zM778 133q97 -31 203 -31q65 0 117 13.5t82.5 33.5t50.5 45.5t27.5 47.5t7.5 41q0 137 -322 307q-85 -248 -166 -457z" />
<glyph unicode="%" horiz-adv-x="1267" d="M178 14q236 214 591.5 698t547.5 847q50 0 116.5 -33t79.5 -66q-292 -434 -656 -877t-593 -663q-24 5 -51.5 33.5t-34.5 60.5zM465 1157q0 55 50 113.5t110 58.5q73 0 113 -58.5t40 -135.5q0 -57 -50 -100.5t-101 -43.5q-59 0 -110.5 50t-51.5 116zM993 371 q0 54 50.5 113t109.5 59q73 0 113.5 -58.5t40.5 -134.5q0 -58 -50.5 -101.5t-101.5 -43.5q-58 0 -110 51t-52 115z" />
<glyph unicode="&#x26;" horiz-adv-x="1366" d="M197 215q3 124 66.5 251.5t157 222.5t197.5 147q-139 60 -139 176q0 71 52.5 154t129.5 151t167 118.5t163 63.5q45 -6 135 -78.5t99 -115.5q-7 -49 -51 -115.5t-89 -99.5q-20 6 -24 20q26 26 47.5 73t21.5 85q0 22 -10 29.5t-33 7.5q-73 0 -168.5 -75t-163 -181 t-67.5 -187q48 -5 118.5 -41.5t82.5 -66.5q-96 -23 -184.5 -95.5t-147.5 -165t-94 -192t-35 -180.5q0 -75 31.5 -119.5t95.5 -44.5q241 0 745 731q-50 -8 -90 -8q-73 0 -106 23.5t-33 74.5q0 32 12 76q64 -10 162 -10q105 0 183 4t79 4q47 0 70.5 -34t44.5 -124 q-110 11 -164 11q-15 0 -37 -1.5t-30 -1.5q-61 -99 -128.5 -196t-154 -203t-172 -190.5t-183 -152.5t-186.5 -97q-158 19 -260.5 116t-109.5 236z" />
<glyph unicode="'" horiz-adv-x="382" d="M469 1116q68 194 68 373q0 109 -25 217q98 -6 179.5 -42.5t107.5 -86.5q-72 -394 -297 -539q-13 11 -23 34t-10 44z" />
<glyph unicode="(" horiz-adv-x="653" d="M285 362q0 194 40 382t109 342t160 286t193 225t208 148q52 -21 116.5 -103t70.5 -114q-156 -28 -297 -148t-238 -288.5t-154 -368t-57 -387.5q0 -172 21.5 -343.5t58.5 -260.5l-24 -27q-101 119 -154 273.5t-53 383.5z" />
<glyph unicode=")" horiz-adv-x="659" d="M-86 -180q156 28 297 148t237.5 288.5t153.5 368t57 387.5q0 173 -21 344.5t-58 259.5l24 26q101 -119 154 -273.5t53 -383.5q0 -241 -61.5 -470.5t-163 -405t-227 -306.5t-259.5 -200q-52 21 -116 103t-70 114z" />
<glyph unicode="*" horiz-adv-x="931" d="M545 1468q43 140 129 140q55 0 111.5 -50t91.5 -118q24 63 24 145q0 17 -10 119q178 -3 178 -121q0 -48 -29.5 -105t-70.5 -100q101 3 252 68q6 -30 6 -82q0 -24 -0.5 -37t-5.5 -33.5t-14 -31t-27.5 -19t-44.5 -8.5q-112 0 -199 37q34 -93 141 -219q-77 -47 -153 -47 q-32 0 -54.5 24.5t-32 64t-13 72t-3.5 66.5q0 25 2 39q-85 -69 -161 -205q-99 83 -99 170q0 29 48.5 62t98 53t78.5 26q-83 54 -243 90z" />
<glyph unicode="+" horiz-adv-x="1140" d="M252 537q0 14 14 63q64 -10 168 -10q125 0 182 4q101 273 191 391q50 -9 140.5 -56t107.5 -73q-87 -97 -170 -244q39 3 86.5 8t77.5 8t47 3q45 0 79.5 -47.5t51.5 -134.5q-100 10 -164 10q-114 0 -266 -19q-80 -178 -140 -360q-75 11 -170 96q23 92 66 234 q-71 -9 -139 -9q-74 0 -118 36.5t-44 99.5z" />
<glyph unicode="," horiz-adv-x="491" d="M2 -268q101 88 146 168t45 174q0 101 -25 207q104 -6 192 -50.5t99 -95.5q-95 -340 -424 -481q-12 11 -22.5 34.5t-10.5 43.5z" />
<glyph unicode="-" horiz-adv-x="1077" d="M279 516q0 20 12 62q51 -9 145 -9q163 0 360.5 20.5t209.5 20.5q39 0 69 -47.5t43 -134.5q-85 10 -141 10q-127 0 -306.5 -28.5t-252.5 -28.5q-63 0 -101 36t-38 99z" />
<glyph unicode="." horiz-adv-x="493" d="M141 2q0 30 11 82.5t29.5 120t19.5 69.5q52 0 143 -48t127 -103q-33 -77 -104 -139t-111 -62q-34 5 -70 29t-45 51z" />
<glyph unicode="/" horiz-adv-x="1116" d="M-23 -262q114 68 274 247t317.5 404.5t305 464.5t255.5 449.5t149 336.5q51 0 138 -42.5t100 -75.5q-345 -604 -742.5 -1118.5t-710.5 -759.5q-24 5 -51.5 33.5t-34.5 60.5z" />
<glyph unicode="0" horiz-adv-x="1323" d="M272 369q0 123 35.5 257.5t96.5 259.5t147.5 239.5t185 199t213 134.5t226.5 50q165 0 250 -116t85 -310q0 -122 -29.5 -254t-83.5 -259.5t-135.5 -243t-179 -203.5t-220 -141t-253.5 -56q-161 30 -249.5 133t-88.5 310zM528 285q0 -133 47.5 -194t145.5 -77 q89 5 175 70.5t153 166.5t125 225t96 248t59 232t21 181q0 242 -111 268q-90 -11 -182.5 -74t-169 -157.5t-144.5 -212t-114.5 -238t-73.5 -235.5t-27 -203z" />
<glyph unicode="1" horiz-adv-x="897" d="M70 31q34 30 342 80q113 476 299 1015q-124 -58 -273 -188q-22 13 -22 55q69 93 142 170.5t183 182.5q64 60 109 145q11 -3 44.5 -11t55.5 -13.5t55 -15.5t54.5 -20t41 -24.5t27.5 -30.5q-60 -50 -86 -100q-77 -138 -196.5 -469t-222.5 -668q76 8 143 8q68 0 105.5 -33.5 t37.5 -93.5q0 -36 -10 -63q-58 10 -137 10q-88 0 -252.5 -25.5t-224.5 -25.5q-79 0 -137 31t-78 84z" />
<glyph unicode="2" horiz-adv-x="1155" d="M178 41q9 39 23 73t45 73.5t56 68t84.5 81t100 86t131.5 107.5q135 111 218 186.5t157.5 160.5t108 161t33.5 154q0 99 -51.5 157t-135.5 58q-119 0 -214 -104t-95 -242q0 -94 63 -172q-27 -6 -53 -6q-97 0 -160 61.5t-63 153.5q0 101 76 191.5t196.5 144t247.5 53.5 q168 0 271.5 -95t103.5 -249q0 -77 -32 -156.5t-73 -141.5t-132 -154t-153.5 -148.5t-193.5 -169.5q-110 -95 -163 -159t-93 -146q163 9 327 73.5t279 165.5q21 -23 43.5 -85.5t22.5 -117.5q0 -49 -23 -88q-19 -21 -54.5 -34t-96 -19t-103.5 -7.5t-126 -2.5q-102 -1 -167 -5 t-141.5 -21t-117.5 -48q-50 22 -90.5 66.5t-55.5 95.5z" />
<glyph unicode="3" horiz-adv-x="1136" d="M184 162q0 4 1 12.5t1 13.5q64 -20 164 -20q109 0 226.5 25t221.5 70.5t171 119t67 160.5q0 69 -45 112.5t-137 55.5q-56 -33 -113 -50.5t-90 -17.5q-48 0 -80 43t-32 123q79 0 156 12.5t156 44t138.5 79t98.5 124.5t42 174q-20 78 -139 78q-101 0 -226.5 -55.5 t-203.5 -137.5q-41 25 -64.5 75t-23.5 116q0 25 2 37q59 41 195 72.5t239 31.5q156 0 233 -78.5t77 -187.5q0 -103 -77.5 -224.5t-203.5 -207.5q258 -29 258 -258q0 -101 -39 -187.5t-105.5 -148.5t-152 -109.5t-183 -76t-192.5 -42.5t-186 -14q-74 15 -114 78.5t-40 157.5z " />
<glyph unicode="4" horiz-adv-x="1167" d="M213 614q319 362 541 840q171 -52 272 -137q-387 -443 -559 -682q93 -41 223 -41q72 0 174 8q204 423 406 807q163 -36 225 -131q-195 -272 -383 -639l100 20q18 -22 21 -45l-162 -59q-152 -312 -219 -618q-74 2 -127 17t-92 58q71 238 180 477q-119 -14 -180 -14 q-306 0 -420 139z" />
<glyph unicode="5" horiz-adv-x="1101" d="M152 113q91 1 199 26.5t212.5 72t191 107t140 139.5t53.5 160q0 125 -141 125t-266 -81q-138 54 -183 118q55 145 168.5 360.5t184.5 311.5q106 -40 180 -111q54 4 185 31t184 43q64 -30 104 -91.5t76 -166.5q-270 70 -539 70q-128 -112 -266 -381q71 28 147 28 q137 0 224.5 -99t87.5 -247q0 -146 -117 -286t-295.5 -226.5t-355.5 -89.5q-54 11 -104 60.5t-70 126.5z" />
<glyph unicode="6" horiz-adv-x="1157" d="M221 254q0 171 87 374.5t218.5 376.5t293.5 309t306 185q47 0 138.5 -54t132.5 -112q-73 -10 -182 -68t-225 -146t-228 -212.5t-182 -253.5q104 109 222 183.5t214 78.5q94 -51 169 -141t75 -178q0 -89 -73.5 -211.5t-177 -227t-222.5 -178t-203 -73.5 q-167 34 -265 122.5t-98 225.5zM442 211q0 -61 40 -126t93 -83q80 38 170.5 119t165 174.5t123.5 196t49 178.5q0 100 -71 149q-247 -82 -408.5 -258.5t-161.5 -349.5z" />
<glyph unicode="7" horiz-adv-x="1140" d="M414 610q0 28 27.5 75t52.5 60q104 17 188 17q30 0 88 -4q159 273 360 508q-145 53 -266 53q-192 0 -243 -148q-76 13 -132 62t-75 117q74 149 272 149q184 0 508 -164q72 76 86 90q54 -23 99.5 -71.5t62.5 -102.5q-119 -62 -234 -203.5t-211 -332.5q205 -66 271 -187 l-15 -14q-98 55 -311 84q-86 -193 -135 -388.5t-49 -350.5q-94 17 -170 57t-101 84q6 233 205 618q-142 0 -276 -16q0 2 -1 3.5t-1 4.5z" />
<glyph unicode="8" horiz-adv-x="1165" d="M219 264q0 89 33.5 166.5t96.5 141t141.5 114t181.5 96.5q-84 78 -130 153t-46 169q0 83 43.5 158t113.5 127t154.5 86.5t169.5 44.5q159 -51 253.5 -130t94.5 -173q0 -99 -107 -198.5t-262 -172.5q49 -48 71 -70.5t61.5 -70.5t58 -84.5t34 -89t15.5 -107.5 q0 -88 -31.5 -169.5t-85 -143.5t-122 -108.5t-145.5 -70.5t-153 -24q-94 0 -170.5 18.5t-138.5 58.5t-96.5 111t-34.5 168zM434 221q0 -107 58 -165t139 -58q53 0 105 26t95.5 73t70 122t26.5 164q0 90 -42 161.5t-118 145.5q-175 -101 -254.5 -223.5t-79.5 -245.5z M762 1163q0 -65 29.5 -121.5t85.5 -117.5q92 61 178 162t86 178q0 63 -31.5 103t-79.5 48q-92 -16 -180 -92.5t-88 -159.5z" />
<glyph unicode="9" horiz-adv-x="1134" d="M227 39q95 13 241.5 114t297.5 264t242 331q-101 -106 -219 -186.5t-205 -84.5q-89 48 -160.5 149t-71.5 191q0 89 74.5 209t179 220.5t223.5 171.5t201 71q163 -33 257.5 -128t94.5 -235q0 -81 -40.5 -198t-108 -243.5t-160 -258t-191 -241.5t-207 -193.5t-202.5 -114.5 q-62 17 -147.5 70.5t-98.5 91.5zM547 756q0 -111 51 -162q131 27 266.5 130t222.5 237t87 245q0 58 -56 121t-121 82q-98 -50 -203.5 -166t-176 -252t-70.5 -235z" />
<glyph unicode=":" horiz-adv-x="583" d="M178 2q0 30 11 82.5t29.5 120t19.5 69.5q52 0 143 -48t127 -103q-33 -77 -104 -139t-111 -62q-34 5 -70 29t-45 51zM383 653q0 24 8 66t16.5 76.5t20.5 78t14 52.5q51 0 143 -48.5t128 -103.5q-33 -77 -104 -139t-111 -62q-34 5 -70 29t-45 51z" />
<glyph unicode=";" horiz-adv-x="581" d="M47 -268q101 88 146 168t45 174q0 101 -25 207q104 -6 192 -50.5t99 -95.5q-95 -340 -424 -481q-12 11 -22.5 34.5t-10.5 43.5zM375 653q0 24 8 66t16.5 76.5t20.5 78t14 52.5q51 0 143 -48.5t128 -103.5q-33 -77 -104.5 -139t-111.5 -62q-34 5 -69.5 29t-44.5 51z" />
<glyph unicode="&#x3c;" horiz-adv-x="1056" d="M233 492q9 27 41 63.5t64 64.5t88 74.5t80 67.5q110 98 185.5 196.5t205.5 303.5q95 0 165.5 -52t70.5 -112q0 -30 -13 -88q-12 10 -28 10q-23 0 -79 -41.5t-130.5 -111t-143.5 -137.5t-146 -145t-110 -108q32 -24 85 -34.5t173 -10.5q148 0 371 39q2 -6 2 -16 q0 -38 -22 -64q-285 -67 -459 -67q-309 0 -400 168z" />
<glyph unicode="=" horiz-adv-x="1167" d="M258 315q0 42 16 78q90 -12 144 -12q165 0 362.5 18.5t208.5 18.5q38 0 68 -47.5t43 -130.5q-91 8 -139 8q-127 0 -307 -29t-253 -29q-67 0 -105 34.5t-38 90.5zM389 721q0 19 12 67q90 -12 146 -12q163 0 360 20.5t209 20.5q39 0 69.5 -46.5t43.5 -131.5q-85 10 -142 10 q-127 0 -306.5 -29.5t-252.5 -29.5q-63 0 -101 36t-38 95z" />
<glyph unicode="&#x3e;" horiz-adv-x="1275" d="M262 475q0 60 55 91t152 34q436 14 692 18q-8 37 -36 74.5t-115 122.5q-88 84 -203.5 157.5t-224.5 106.5q6 16 28.5 30.5t40.5 16.5q165 -47 296.5 -135.5t269.5 -222.5q52 -52 89 -122.5t37 -145.5q0 -31 -6 -58q-45 -26 -161 -26q-40 0 -123 3t-119 3 q-140 0 -260.5 -23t-343.5 -86q-68 95 -68 162z" />
<glyph unicode="?" horiz-adv-x="983" d="M266 -39q0 21 6.5 53t18.5 67.5t35 60t51 24.5q40 0 101.5 -40.5t86.5 -88.5q-21 -23 -51.5 -77t-58 -86t-62.5 -32q-40 0 -83.5 32t-43.5 87zM401 365q0 49 23 114t67 138t120.5 148t172.5 132q157 93 239.5 184t82.5 164q0 64 -47 119t-103 55q-41 0 -92.5 -50.5 t-88 -122t-36.5 -128.5q0 -28 6 -37q-23 -4 -47 -4q-80 0 -154 28.5t-87 65.5q20 89 85 184t149 161t155 75q106 -8 201 -63.5t154 -145t59 -188.5q0 -74 -24 -139.5t-81 -137t-118 -133t-168 -163.5q-8 -7 -13.5 -12.5t-11.5 -10.5q-93 -87 -144 -181t-51 -171q0 -11 4 -43 q-69 3 -148 54t-104 108z" />
<glyph unicode="@" horiz-adv-x="1341" d="M250 365q0 133 83 305t234 297q200 163 406 163q121 0 231.5 -59.5t175 -150.5t64.5 -183q0 -80 -51.5 -180t-125.5 -182.5t-161 -139.5t-154 -57q-85 0 -163 76.5t-78 161.5q0 106 78 204.5t217 139.5q75 -28 131.5 -93.5t60.5 -131.5q-39 16 -82 16q-85 0 -146 -64.5 t-61 -144.5q0 -57 58 -57q69 0 165 84.5t166 201t70 199.5q0 85 -72.5 144t-175.5 59q-104 0 -217.5 -65t-202 -164.5t-146.5 -227.5t-58 -246q0 -151 86 -256.5t211 -105.5q90 0 199.5 65t269.5 213q16 -29 16 -45q-71 -73 -127 -123t-126.5 -101t-141.5 -77t-142 -26 q-79 0 -155 34.5t-135.5 92t-105.5 128.5t-70.5 148.5t-24.5 147.5z" />
<glyph unicode="A" d="M125 -27q0 66 72.5 233t199.5 390q-140 4 -164 4q22 55 222 92q161 266 353.5 475.5t360.5 300.5q1 7 2 16t2 14.5t1 8.5q57 0 170.5 -49.5t121.5 -77.5q-70 -124 -135 -364.5t-106 -556.5q-25 -195 -25 -420q0 -123 4 -191q-6 -2 -24 -2q-57 0 -140.5 32.5t-93.5 58.5 q-2 35 -2 106q0 268 41 528q-131 10 -436 21q-227 -416 -250 -748q-98 29 -136 57.5t-38 71.5zM621 713q172 15 391 18q14 78 35.5 168t44.5 184.5t38 176.5q-102 -38 -241 -188.5t-268 -358.5z" />
<glyph unicode="B" horiz-adv-x="1472" d="M276 76q39 121 128 343t163 384q157 345 252 471q-113 -34 -205 -78.5t-135 -85.5q-37 25 -75 91.5t-42 115.5q107 75 323 128.5t409 53.5q245 0 384.5 -99t139.5 -272q0 -124 -68.5 -224.5t-191.5 -166.5q80 -55 125 -132t45 -167q0 -145 -113 -283.5t-296 -224.5 t-376 -86q-157 0 -278 60.5t-189 171.5zM526 61q54 -32 168 -32q137 0 266.5 39.5t224.5 104.5t152.5 152.5t57.5 180.5q0 134 -117 194q-157 -65 -360 -65q-53 0 -80 4q-38 18 -72 55q-98 -220 -167 -399.5t-73 -233.5zM819 817q89 19 185 19q28 0 102 -9q196 34 314 121.5 t118 202.5q0 97 -78 148t-225 51q-71 0 -193 -21q9 -9 23 -37q-76 -103 -246 -475z" />
<glyph unicode="C" horiz-adv-x="1236" d="M291 401q0 169 48 335.5t135 304.5t200 244.5t251 166t279 59.5q140 0 219.5 -59.5t79.5 -165.5q0 -80 -44 -169.5t-113 -147.5q-53 8 -93 47.5t-49 93.5q72 59 114 123.5t42 118.5q0 43 -29.5 66.5t-83.5 23.5q-92 0 -198 -73t-189 -193q-285 -411 -285 -838 q0 -149 47 -241.5t126 -110.5q88 20 224.5 112.5t293.5 239.5q20 -20 24 -43q-117 -157 -249 -281.5t-234 -173.5q-252 5 -384 147.5t-132 413.5z" />
<glyph unicode="D" horiz-adv-x="1593" d="M319 1092q40 189 220.5 304t439.5 115q216 0 385.5 -82t264.5 -232t95 -343q0 -196 -75 -382t-198.5 -323.5t-292 -221t-347.5 -83.5q-167 0 -287 67.5t-180 194.5q89 201 259 654t214 602q-129 -53 -221 -163t-139 -271q-48 16 -87.5 60t-50.5 104zM580 41 q56 -18 157 -18q163 0 314 77t260.5 204.5t175 301t65.5 359.5q0 209 -130 326.5t-355 117.5q-100 0 -195 -29q81 -29 143 -64.5t89 -60.5q-33 -46 -123 -222.5t-180 -375.5q-221 -490 -221 -616z" />
<glyph unicode="E" horiz-adv-x="1247" d="M221 14q85 177 256 627q-93 28 -121 102q18 18 181 58q63 167 92 258t53 205q-70 3 -112 39.5t-42 93.5q0 35 17 78q73 -11 178 -11q202 0 444.5 22.5t257.5 22.5q47 0 84 -49.5t56 -138.5q-105 10 -174 10q-138 0 -385 -35q-41 -61 -215 -450q166 26 262 26 q68 0 105.5 -36.5t37.5 -102.5q0 -36 -10 -63q-58 10 -137 10q-52 0 -111 -6.5t-134.5 -18.5t-105.5 -16q-91 -211 -150.5 -390.5t-62.5 -242.5q368 75 691 96q53 -77 53 -163q0 -38 -4 -56q-152 4 -287 4q-137 0 -249.5 -11t-285.5 -42q-94 39 -182 180z" />
<glyph unicode="F" horiz-adv-x="1128" d="M231 14q54 112 248 611q-41 13 -70.5 39.5t-41.5 60.5q19 19 172 53q68 182 99.5 277.5t55.5 210.5h-10q-78 0 -126 36.5t-48 96.5q0 42 18 78q70 -11 177 -11q202 0 444.5 22.5t257.5 22.5q47 0 84 -49t57 -139q-108 10 -176 10q-161 0 -356 -30q-24 -36 -64.5 -122.5 t-160.5 -355.5q192 29 274 29q66 0 103.5 -36.5t37.5 -102.5q0 -44 -10 -64q-64 11 -137 11q-54 0 -115.5 -7.5t-136.5 -20t-109 -16.5q-180 -422 -243 -784q-69 15 -123 58.5t-101 121.5z" />
<glyph unicode="G" horiz-adv-x="1331" d="M289 412q0 206 78.5 407.5t205.5 353t298 245t346 93.5q140 0 219.5 -60t79.5 -167q0 -71 -34 -133.5t-112 -132.5q-48 14 -83 51t-42 82q72 53 99.5 95.5t27.5 101.5q0 46 -29 70t-83 24q-91 0 -197.5 -69.5t-212.5 -196.5q-152 -181 -221.5 -375t-69.5 -436 q0 -175 66.5 -292t165.5 -126q84 19 171.5 100t147 189.5t70.5 205.5q-9 -2 -43.5 -9.5t-47.5 -10t-38 -7t-43.5 -6t-36.5 -1.5q-62 0 -107.5 30t-62.5 84q72 40 258 84.5t282 44.5q54 0 84.5 -36.5t30.5 -102.5q0 -42 -8 -63q-44 9 -94 12q-17 -118 -101.5 -251.5 t-204.5 -235t-233 -130.5q-273 6 -399.5 143t-126.5 425z" />
<glyph unicode="H" horiz-adv-x="1382" d="M147 14q64 133 244 604q-68 29 -90 80q19 14 135 37l27 66q85 217 115 327.5t81 391.5q81 -14 153 -73t126 -147q-8 -11 -17.5 -26t-22 -38.5t-23 -43.5t-27 -55.5t-27 -58.5l-31.5 -69t-32 -71t-35.5 -80.5t-36.5 -81.5q282 39 488 51q77 223 157.5 399.5t136.5 235.5 q42 -3 124.5 -47.5t101.5 -79.5q-69 -65 -143 -210.5t-140 -336.5q41 -38 41 -92q0 -39 -16 -71q-28 4 -76 8q-69 -219 -111.5 -425t-42.5 -319q0 -33 4 -53q-41 2 -65 15t-31 28.5t-18 32t-27 22.5q-26 9 -44.5 74.5t-18.5 110.5q0 160 104 510q-75 -5 -255 -24.5 t-253 -20.5q-166 -392 -231 -750q-73 18 -126 62.5t-98 117.5z" />
<glyph unicode="I" horiz-adv-x="645" d="M268 117q0 143 82 436.5t193 562t186 346.5q43 -3 125 -47.5t98 -79.5q-84 -76 -175 -274.5t-158 -421t-110.5 -434.5t-43.5 -326q0 -34 6 -43q-41 2 -65.5 15t-32.5 28.5t-19.5 32t-27.5 22.5q-25 9 -41.5 73.5t-16.5 109.5z" />
<glyph unicode="J" horiz-adv-x="1048" d="M35 -57q0 119 117 350q51 -5 123 -38t98 -65q-65 -68 -106.5 -149t-41.5 -139q0 -73 60 -113q125 47 243.5 176t210.5 318q104 215 174 535t70 521q0 82 -8 174q76 0 160 -28.5t149 -73.5q-83 -422 -123 -571q-96 -364 -210 -597.5t-263 -375.5q-147 -141 -276 -166 q-165 2 -271 69t-106 173z" />
<glyph unicode="K" horiz-adv-x="1337" d="M152 14q15 31 33.5 74.5t47.5 117.5t56.5 144t79.5 204t96 247q87 226 118.5 338.5t80.5 380.5q81 -14 152.5 -73t125.5 -147q-12 -15 -26.5 -40.5t-34 -64.5t-37 -75.5t-44 -95.5t-46 -103.5t-53 -119.5t-54.5 -123q-203 -456 -272 -844q-73 18 -125 62t-98 118z M684 649q264 391 494 626.5t364 235.5q56 0 118.5 -74t63.5 -143q-251 -82 -481.5 -261t-396.5 -421q74 -189 195.5 -376t246.5 -273q-22 -43 -88 -81t-119 -38q-26 0 -50 11.5t-48.5 40.5t-45 60.5t-46 90.5t-46 111t-50 140.5t-52.5 161t-59 189.5z" />
<glyph unicode="L" horiz-adv-x="1024" d="M152 14q9 21 49.5 110.5t74 166t89 218.5t108.5 298q73 213 110.5 350t88.5 371q82 -17 142 -61t116 -126q-71 -122 -275 -653q-30 -80 -70 -181.5t-66.5 -167.5t-51.5 -133t-37.5 -110.5t-13.5 -66.5q64 3 114 11.5t144 31.5q144 35 295 45q51 -86 51 -170 q0 -33 -10 -66q-63 8 -152 8q-184 0 -524 -55q-46 17 -94 65t-88 115z" />
<glyph unicode="M" horiz-adv-x="1929" d="M96 -29q0 142 318 715q186 337 331 541t277 280q57 0 171 -49.5t122 -77.5q-62 -128 -151.5 -450.5t-127.5 -601.5q141 335 383 706.5t381 472.5q57 0 171 -49.5t122 -77.5q-82 -147 -145 -394.5t-92 -489.5t-29 -443q0 -131 4 -205q-62 0 -149 28t-109 61q-2 39 -2 118 q0 473 145 1020q17 65 39 180q-85 -41 -202 -200t-222.5 -362t-185 -436.5t-92.5 -408.5q-6 -2 -25 -2q-57 0 -139.5 32.5t-93.5 58.5q-2 39 -2 118q0 473 145 1020q21 78 37 168q-74 -58 -186.5 -218.5t-222 -359t-195 -426t-101.5 -395.5q-98 29 -136 57t-38 70z" />
<glyph unicode="N" horiz-adv-x="1398" d="M190 -2q0 118 100.5 414t232.5 589.5t220 419.5l-14 86q58 0 184.5 -50t135.5 -77q-23 -127 -23 -360q0 -257 20 -463t78 -410q66 329 149 634.5t163 504.5t129 205q44 -8 99.5 -49.5t78.5 -85.5q-74 -30 -154 -164.5t-145 -316.5t-118.5 -379.5t-83.5 -369.5t-32 -271 q0 -5 2 -7q-8 -2 -26 -2q-96 0 -168.5 24.5t-93.5 66.5q-81 327 -118 632t-50 682q-76 -121 -164 -372t-148.5 -518t-60.5 -424q0 -69 6 -93q-117 35 -158 67t-41 87z" />
<glyph unicode="O" horiz-adv-x="1480" d="M276 301q0 124 28 264t77 274t120 257.5t152.5 216t179 148t195.5 55.5q63 0 123 -25q77 -33 156.5 -94.5t83.5 -93.5q-66 14 -134 14q-91 0 -184 -45.5t-173 -123t-150.5 -183t-120 -223t-78.5 -246t-29 -248.5q0 -316 209 -316q100 0 224 73.5t223 193.5 q141 169 225 426t84 510q0 46 -2.5 84t-4.5 55.5t-5.5 38t-4.5 24.5q29 -14 44.5 -23t43.5 -34t43 -54.5t27 -82t12 -119.5q0 -278 -124 -537.5t-322 -431.5q-123 -107 -263 -167t-267 -60q-188 0 -288 121t-100 352z" />
<glyph unicode="P" d="M266 14q62 120 342 787q74 178 105.5 264.5t60.5 202.5q-195 -63 -311 -158q-36 25 -74.5 92.5t-42.5 114.5q119 81 335 135.5t415 54.5q233 0 369.5 -110.5t136.5 -292.5q0 -148 -95 -277.5t-257.5 -206.5t-350.5 -77q-51 0 -80.5 13t-66.5 52q-197 -430 -269 -774 q-73 18 -124 62t-93 118zM809 731q313 0 513 110.5t200 272.5q0 108 -74 172t-211 64q-71 0 -160 -13l25 -37q-63 -80 -293 -569z" />
<glyph unicode="Q" horiz-adv-x="1472" d="M98 -221q12 104 77.5 159t199.5 72q-94 82 -94 287q0 141 34 290t91.5 282t138 252.5t169.5 206.5t189 137.5t195 50.5q61 0 125 -25q70 -31 146 -94.5t77 -93.5q-68 14 -127 14q-221 0 -413.5 -186.5t-309.5 -514.5q-47 -137 -75.5 -271.5t-28.5 -223.5q0 -116 47 -119 q24 0 104.5 -19t124.5 -34q77 3 182.5 71.5t204.5 180.5q177 196 278 463.5t101 539.5q0 97 -8 133q83 -41 118 -95.5t35 -141.5q0 -248 -146.5 -547.5t-367.5 -503.5q-144 -135 -237 -151q106 -57 263 -125t195 -74q21 2 53.5 26t55.5 56q27 -36 31 -64q-15 -57 -91.5 -140 t-125.5 -95q-72 5 -131 32t-183 113q-225 156 -351.5 211.5t-256.5 55.5q-112 0 -177 -39.5t-77 -114.5q-31 14 -35 39z" />
<glyph unicode="R" horiz-adv-x="1415" d="M264 14q31 60 86 186t256 601q71 168 102.5 255t61.5 212q-205 -71 -309 -158q-36 25 -74.5 92.5t-42.5 114.5q119 81 336 135.5t403 54.5q243 0 379.5 -101.5t136.5 -277.5q0 -193 -164 -339.5t-411 -180.5q65 -192 173 -382t212 -285q-19 -41 -76.5 -80t-103.5 -39 q-88 0 -168.5 176.5t-190.5 601.5q-63 0 -79 4q-14 8 -31 29q-110 -241 -175.5 -427.5t-103.5 -371.5q-131 28 -217 180zM815 750q203 0 364 49.5t251 138.5t90 201q0 103 -75.5 157t-225.5 54q-51 0 -144 -11l25 -39q-28 -37 -115.5 -206.5t-169.5 -343.5z" />
<glyph unicode="S" horiz-adv-x="1437" d="M207 281q0 48 26 111t82 126q7 -68 71 -151.5t177 -149.5q213 -125 457 -125q86 0 155 19.5t107.5 47.5t65 64t36 63t11.5 50q-1 27 -16.5 52.5t-50 52t-67 47.5t-93 50t-100 47t-114.5 50q-138 61 -224 108t-150 100.5t-90.5 111t-26.5 130.5q0 118 71 219t199 154 q126 53 287 53q229 0 522 -131q12 -70 12 -84q0 -69 -30 -127t-80 -82q-77 106 -221.5 158.5t-302.5 52.5q-147 0 -247.5 -42.5t-101.5 -112.5q4 -29 26.5 -59.5t64 -62t84.5 -59t106.5 -60.5t110 -55.5t114.5 -53.5q78 -36 127 -61.5t99.5 -58.5t79.5 -63.5t53.5 -71 t34.5 -88.5t10 -108q0 -215 -139 -356.5t-369 -141.5q-113 0 -247.5 36t-249.5 94.5t-192 141t-77 165.5z" />
<glyph unicode="T" horiz-adv-x="1204" d="M442 1399q0 40 19 78q50 -23 201 -23q167 0 489 28.5t332 28.5q70 0 105 -51.5t54 -154.5q-117 10 -194 10q-113 0 -266 -17q-54 -109 -126.5 -296.5t-123.5 -344.5q-160 -488 -215 -829q-138 20 -230 172q58 220 269 799q117 319 155 467q-205 -25 -299 -25 q-79 0 -124.5 45t-45.5 113z" />
<glyph unicode="U" horiz-adv-x="1427" d="M330 270q0 253 104.5 617.5t245.5 623.5q71 -3 173.5 -46.5t139.5 -86.5q-178 -238 -287.5 -559t-109.5 -583q0 -160 48 -232t161 -72q126 0 227.5 89.5t194.5 261.5q109 201 162 477t53 549q0 118 -8 176q23 0 94.5 -16t109.5 -37q-21 -325 -113.5 -661.5t-234.5 -567.5 q-113 -184 -249.5 -279.5t-313.5 -95.5q-190 0 -293.5 112t-103.5 330z" />
<glyph unicode="V" horiz-adv-x="1263" d="M489 561q0 103 7.5 411.5t7.5 536.5q56 0 185 -51t138 -78q-39 -107 -58 -338.5t-19 -500.5q0 -333 30 -504q110 336 263.5 676.5t288 556t196.5 221.5q44 -8 95.5 -49.5t70.5 -85.5q-87 -30 -197.5 -163.5t-211.5 -313.5t-192.5 -376t-153.5 -366t-81 -268 q-48 -25 -100 -25q-66 8 -126 33.5t-89 59.5q-54 322 -54 624z" />
<glyph unicode="W" horiz-adv-x="1951" d="M449 305q0 204 38 587.5t52 616.5q55 0 178 -50.5t135 -78.5q-66 -152 -106.5 -480.5t-40.5 -631.5q0 -152 8 -245q117 174 328 726.5t257 759.5q57 0 182.5 -51t131.5 -78q-66 -152 -107 -481t-41 -631q0 -128 6 -223q180 473 399.5 916.5t293.5 521.5q48 -6 98 -34 t88 -71q-84 -66 -210 -267.5t-243 -438.5t-213.5 -454.5t-142.5 -348.5q-55 -25 -104 -25q-66 8 -124.5 33.5t-82.5 59.5q-21 118 -21 315q0 257 49 778q-285 -831 -477 -1161q-55 -25 -104 -25q-66 8 -124.5 33.5t-82.5 59.5q-20 185 -20 368z" />
<glyph unicode="X" horiz-adv-x="1304" d="M139 -6q13 49 92 151q162 207 572 525q-132 661 -377 661q25 59 79.5 104.5t115.5 55.5q37 0 61 -2.5t49.5 -15.5t41.5 -30t36.5 -57.5t34.5 -85t35.5 -124.5t40.5 -165t47 -218q130 139 244 287t159 235q23 42 23 80q0 34 -23 96q67 -39 100.5 -73.5t57.5 -92.5 q-6 -68 -50.5 -137.5t-152.5 -179.5t-336 -318q54 -251 102 -393.5t102.5 -213t131.5 -91.5q-35 -38 -131 -84.5t-152 -52.5q-29 0 -46.5 18t-43 98.5t-51.5 205t-76 378.5q-236 -240 -389 -443t-153 -276q-51 6 -97.5 57t-46.5 101z" />
<glyph unicode="Y" horiz-adv-x="1255" d="M428 1456q40 15 154.5 32.5t195.5 20.5q0 -149 70 -450.5t115 -351.5q299 329 501 780q53 -6 102 -28t79 -52q-235 -282 -376.5 -463t-260.5 -356q-65 -223 -106.5 -424t-41.5 -314q-45 0 -172.5 30.5t-142.5 45.5q25 43 50 100t54.5 142t45 131t49.5 155.5t40 127.5 q-118 366 -202.5 581t-153.5 293z" />
<glyph unicode="Z" horiz-adv-x="1429" d="M16 -162q0 93 80 137q236 340 602 673.5t762 586.5q-123 6 -260 6q-480 0 -643 -86q-18 67 -18 178q0 131 20 178q502 -88 914 -88q144 0 243 13q49 -67 49 -222q-180 -74 -360.5 -188t-326 -238t-272.5 -257.5t-214.5 -250.5t-138.5 -214q119 19 387 36q290 19 436 113 q20 -41 40.5 -140t20.5 -171q0 -23 -4 -43q-36 2 -115.5 8.5t-139.5 10t-115 3.5q-173 0 -341 -22.5t-322.5 -75.5t-231.5 -129q-7 24 -21.5 59t-22.5 63.5t-8 59.5z" />
<glyph unicode="[" horiz-adv-x="790" d="M92 -100q33 70 140.5 355t201.5 550q206 578 244 772q97 19 214 31t177 12q81 0 110 -25t29 -69q0 -15 -8 -39q-62 6 -127 6q-133 0 -209 -8q-25 -101 -99 -334t-163 -463q-150 -385 -228 -601t-79 -275q226 65 342 65q121 0 121 -92q0 -15 -8 -39q-62 6 -123 6 q-150 0 -369 -39q-42 16 -81 63t-85 124z" />
<glyph unicode="\" horiz-adv-x="1351" d="M543 1522q13 33 100 75.5t137 42.5q82 -557 221 -1110.5t232 -758.5q-7 -32 -35 -61t-51 -34q-126 212 -283.5 706t-320.5 1140z" />
<glyph unicode="]" horiz-adv-x="788" d="M14 -193q0 12 9 39q62 -6 127 -6q132 0 208 8q24 99 99 333t164 464q149 382 227.5 600t79.5 277q-230 -66 -342 -66q-121 0 -121 92q0 15 8 39q61 -6 123 -6q150 0 369 39q42 -16 80.5 -62t84.5 -124q-33 -69 -140 -354.5t-202 -551.5q-204 -571 -243 -772 q-97 -19 -214 -31t-177 -12q-81 0 -110.5 25t-29.5 69z" />
<glyph unicode="^" horiz-adv-x="739" d="M82 1069q156 88 274 313l-8 52q42 28 125 28q43 0 57 -2q17 -242 44.5 -358t82.5 -182l-18 -2q-58 0 -121 79.5t-110 204.5q-54 -82 -113 -134t-102 -52q-58 0 -111 53z" />
<glyph unicode="_" horiz-adv-x="1165" d="M84 -74q0 15 14 64q71 -10 181 -10q204 0 448.5 20t257.5 20q48 0 85 -47.5t54 -134.5q-105 10 -174 10q-158 0 -380 -28.5t-314 -28.5q-79 0 -125.5 36t-46.5 99z" />
<glyph unicode="`" horiz-adv-x="583" d="M41 1260q0 57 38 132t81 101q86 -141 189 -243t194 -136q-48 -39 -113 -39q-64 0 -147.5 40t-241.5 145z" />
<glyph unicode="a" horiz-adv-x="962" d="M170 203q0 111 50 241.5t124.5 236.5t168 179.5t173.5 77.5q41 -11 95.5 -67.5t58.5 -94.5q-106 -17 -221.5 -125t-191 -254.5t-75.5 -269.5q0 -39 29 -49q60 12 138 102t188 275q102 171 198 372q28 0 64.5 -12t62.5 -29t25 -30q-84 -173 -135.5 -340.5t-51.5 -270.5 q0 -120 54 -149q-25 -15 -64 -26t-69 -11q-111 0 -111 152q0 116 78 319q-83 -188 -203 -324t-215 -151q-75 3 -122.5 72.5t-47.5 175.5z" />
<glyph unicode="b" horiz-adv-x="966" d="M225 203q0 177 66 424t163 468.5t214.5 395.5t212.5 215q40 -12 106.5 -53.5t91.5 -69.5q-449 -363 -659 -1143q116 214 272 380.5t242 166.5q66 -17 118.5 -79t61.5 -134q-2 -101 -41 -221t-102 -228.5t-137 -199.5t-154.5 -145t-147.5 -54q-48 0 -96.5 20t-48.5 40 q191 128 349.5 378t193.5 480q0 10 -8 20t-19 13q-55 -2 -186 -172.5t-244 -378.5t-123 -306q-9 0 -19 11.5t-16 29.5q-7 20 -47 50q-25 18 -34 36t-9 56z" />
<glyph unicode="c" horiz-adv-x="860" d="M211 360q0 113 48.5 225.5t126 196.5t181.5 136.5t209 52.5q106 0 163.5 -53.5t57.5 -151.5q0 -94 -48 -171t-107 -77q-25 0 -50 15t-42 40q137 125 137 228q0 59 -47 59q-40 0 -103 -39.5t-119 -101.5q-180 -202 -180 -469q0 -164 74 -199q61 8 160.5 57t193.5 119 q8 -6 14.5 -19t6.5 -22q-67 -84 -173.5 -158.5t-176.5 -86.5q-135 12 -230.5 135t-95.5 284z" />
<glyph unicode="d" horiz-adv-x="886" d="M162 186q0 137 76.5 310t190.5 304t216 156q40 0 94 -25t95 -63q-20 171 -75 314.5t-198 371.5q14 39 77 89t114 59q117 -126 198.5 -363t81.5 -450q0 -156 -52 -329.5t-133.5 -314t-187 -240t-206.5 -116.5q-141 15 -216 91t-75 206zM344 88q0 -102 92 -117 q94 33 188.5 163.5t154 306t59.5 331.5q0 49 -2 59q-95 -41 -212.5 -179t-198.5 -299.5t-81 -264.5z" />
<glyph unicode="e" horiz-adv-x="827" d="M178 233q0 164 87.5 336t223.5 284t267 112q94 -12 176 -117q-6 -100 -32 -179.5t-68 -139.5t-110.5 -112t-147 -92.5t-189.5 -84.5q0 -8 -1 -26.5t-1 -27.5q0 -41 6.5 -74.5t29 -61t58.5 -27.5q52 0 106 22.5t106.5 64.5t85.5 73.5t77 78.5q20 -17 35 -35 q-92 -121 -202 -203t-208 -104q-139 15 -219 101.5t-80 211.5zM401 317q170 85 276.5 206.5t113.5 256.5q-115 -15 -228.5 -146t-161.5 -317z" />
<glyph unicode="f" horiz-adv-x="700" d="M180 -424q37 231 95.5 479t195.5 731q-121 0 -182 -10q-19 19 -19 49q59 22 224 45q97 311 250.5 492.5t320.5 181.5q19 0 47.5 -3t34.5 -3q20 14 50.5 25.5t51.5 11.5q23 0 64 -27q-38 -65 -66 -174q-52 -152 -108 -196q-22 0 -25 59q-3 42 -12 84q-15 38 -15 70 q0 15 11 88q-67 0 -163.5 -164.5t-184.5 -427.5l172 6q9 -9 16.5 -45.5t9.5 -75.5l-225 12q-352 -1055 -412 -1376q-52 21 -61 78q-8 54 -70 90z" />
<glyph unicode="g" horiz-adv-x="921" d="M-215 -610q0 20 27 43q53 -44 77.5 -56t67.5 -12q211 0 382.5 217.5t278.5 610.5q-46 -50 -133.5 -110.5t-142.5 -82.5q-69 12 -116.5 87.5t-47.5 172.5q0 115 64 246t160.5 235t217 173t226.5 69q71 0 108 -30t52 -101q-21 12 -58 12q-71 0 -177.5 -83t-200 -199 t-161 -249t-67.5 -224q0 -21 8 -21q34 0 121 71t166 160q86 96 159 218.5t117 238.5q52 -3 97 -18t61 -31q-95 -219 -184 -461q-124 -337 -215.5 -522.5t-227.5 -335.5q-67 -74 -164 -117t-176 -43q-100 0 -195 42.5t-124 99.5z" />
<glyph unicode="h" horiz-adv-x="1058" d="M197 35q0 145 56 377t150 473q83 216 213.5 435.5t270.5 379.5q65 0 144 -30t114 -68q-154 -157 -276.5 -318.5t-194.5 -302.5q-82 -162 -132 -286.5t-85 -266.5q393 502 583 502q54 0 116.5 -35.5t107.5 -93.5q-126 -138 -254.5 -365.5t-128.5 -310.5q0 -21 6 -28t26 -7 q18 0 34.5 4t26 8t11.5 4q14 -23 14 -32q0 -15 -83 -54.5t-115 -39.5q-41 0 -76 41t-35 88q0 60 66 232.5t166 373.5q0 1 -3.5 4.5t-5.5 3.5q-6 0 -31.5 -16t-47.5 -33q-146 -108 -294 -312t-241 -421q-6 -13 -18.5 -26t-20.5 -13q-14 0 -38 50.5t-25 82.5z" />
<glyph unicode="i" horiz-adv-x="483" d="M201 137q0 69 69 389q7 29 19.5 67t35.5 92.5t60 101t80 67.5q42 -9 98 -45t92 -90q-36 -40 -64 -82t-52 -93t-38.5 -86t-39 -102.5t-37.5 -101.5q-60 -157 -62 -223q0 -41 -2 -54.5t-10 -13.5q-10 0 -32.5 10.5t-49.5 30.5t-47 55.5t-20 77.5zM573 1130q0 37 19.5 121.5 t44.5 147.5q47 0 132 -49t116 -95q-47 -44 -132 -147.5t-100 -136.5q-25 4 -43 21t-18 34q0 13 6 37q-25 25 -25 67z" />
<glyph unicode="j" horiz-adv-x="483" d="M-426 -623q1 13 12.5 27t22.5 16q66 -69 164 -69q46 0 80 15t70 60t67 113t71.5 190t82.5 274t100 380q77 302 149.5 443t151.5 141q57 0 137 -56q-122 -216 -154 -333q-69 -245 -150.5 -509t-119.5 -366q-91 -241 -180.5 -342.5t-212.5 -101.5q-90 0 -173 33.5 t-118 84.5zM559 1233q0 37 20.5 122.5t43.5 143.5q47 0 131.5 -48.5t115.5 -94.5q-49 -44 -133 -148t-98 -137q-25 5 -43 21.5t-18 35.5q0 11 6 35q-25 25 -25 70z" />
<glyph unicode="k" horiz-adv-x="1056" d="M203 193q0 143 133 482t304.5 649.5t270.5 379.5q57 -4 125 -78t68 -131q-184 -147 -368 -442.5t-281 -597.5q132 227 280 362t271 139q90 -66 90 -174q0 -130 -97 -254t-219 -149q30 -103 74 -194.5t118.5 -181.5t164.5 -142q-19 -43 -81 -77t-128 -34q-111 0 -191 215 q-62 169 -110 445q65 44 161 137q181 175 181 301q0 6 -7 11t-16 5q-82 -3 -214 -141t-251 -344q-47 -83 -79.5 -203.5t-32.5 -214.5q0 -29 6 -47q-63 6 -78 33q-30 49 -51 65q-19 14 -31 62.5t-12 118.5z" />
<glyph unicode="l" horiz-adv-x="483" d="M197 131q0 183 163 633q250 684 457 936q48 -9 130 -55.5t100 -73.5q-160 -189 -280.5 -405.5t-221.5 -497.5q-86 -238 -131 -433t-45 -325q0 -50 2 -60q-24 3 -40.5 10t-26.5 18t-18 22.5t-19.5 25t-26.5 23.5q-19 12 -31 64t-12 118z" />
<glyph unicode="m" horiz-adv-x="1566" d="M176 133q4 119 53 275q28 92 78 203t90 185.5t99 178.5q57 -12 103 -39t97 -78q-17 -54 -63 -134t-90.5 -149t-85 -158.5t-51.5 -166.5q46 64 65 91t70 96t81.5 105.5t80 95t85.5 91.5t79 68t80 51t69 16q46 0 103 -27t63 -42q-12 -49 -127 -257.5t-125 -269.5 q109 150 189.5 251t162 187t148.5 127t124 41q43 0 78.5 -21.5t48.5 -61.5q-17 -57 -84 -195t-119 -269.5t-53 -217.5q0 -41 11.5 -55.5t36.5 -14.5q19 0 45.5 9t31.5 9q17 -11 17 -43q-96 -75 -181 -75q-169 0 -169 206q0 53 11 108.5t33 112t39 95.5t45.5 95t36.5 73 q-45 -3 -130.5 -90.5t-161.5 -189t-168 -229.5t-127 -169q-99 42 -125 143q52 306 258 600q-58 -3 -188.5 -143t-260.5 -322q-37 -53 -85.5 -126.5t-74 -109.5t-38.5 -44q-50 35 -71.5 77.5t-33.5 106.5z" />
<glyph unicode="n" horiz-adv-x="1105" d="M154 57q0 79 43 234t110 309q48 112 98 204.5t81 138t44 50.5q53 -17 100.5 -72.5t69.5 -123.5q-22 -55 -152.5 -275t-139.5 -291q46 50 148.5 171t123.5 143q54 58 95.5 98.5t106 97t123 87t105.5 30.5q87 0 145 -110q0 -2 -6.5 -6t-21.5 -15.5t-31 -30.5 q-68 -88 -140.5 -254t-72.5 -280q0 -48 12 -64t39 -16q16 0 47 10t39 10q7 -4 13 -17.5t6 -23.5q-33 -30 -87.5 -57t-88.5 -27q-110 0 -152.5 58t-42.5 160q0 56 23.5 135.5t89.5 232.5q-4 0 -27 -12t-63 -41t-76 -64q-178 -173 -330 -383q-36 -52 -56 -78.5t-42.5 -52 t-38.5 -34.5q-71 41 -94 159z" />
<glyph unicode="o" horiz-adv-x="903" d="M184 260q0 164 94.5 341.5t239.5 283.5q113 84 211 84q66 -35 129 -146q6 0 18.5 1t18.5 1q109 0 109 -192q0 -256 -159 -454t-405 -251q-117 12 -186.5 103t-69.5 229zM379 158q0 -50 16.5 -95t36.5 -51q184 40 303 218.5t119 416.5q0 93 -27 137q-154 -45 -282 -211 q-70 -94 -118 -213.5t-48 -201.5z" />
<glyph unicode="p" horiz-adv-x="1019" d="M2 -469q0 89 55.5 290t143.5 423q174 437 237 633q16 50 64.5 132t83.5 113q71 -11 135.5 -37t77.5 -51q-57 -53 -135.5 -204t-108.5 -261q45 75 154 189q156 162 258 162q78 0 128 -43.5t50 -110.5q0 -147 -50 -291.5t-141 -261.5q-71 -91 -180.5 -159t-187.5 -68 q-37 0 -65.5 15t-37.5 38q159 94 296 326t186 493q-82 -44 -144 -93t-121 -122q-152 -189 -191 -245t-79 -150q-58 -130 -143.5 -413t-157.5 -585q-24 3 -39 33q-32 34 -41 39q-12 3 -22 20.5t-11 41.5q-14 49 -14 147z" />
<glyph unicode="q" horiz-adv-x="925" d="M188 299q0 51 28.5 140t72.5 179q166 328 487 386q58 -6 113 -52t63 -92q5 12 29.5 30.5t36.5 18.5q32 0 68 -15.5t53 -37.5q-230 -464 -342 -723q-98 -230 -169.5 -464t-97.5 -412q-9 -9 -36 -9q-12 0 -23.5 6.5t-13.5 14.5q-3 9 -15.5 20t-27.5 15q-15 5 -27.5 20 t-15.5 33q21 359 215 815q-147 -150 -203 -160q-37 0 -83.5 48t-79 116.5t-32.5 122.5zM377 125q0 -14 18 -14q144 103 256 251q80 109 149 226.5t98 179.5l30 63q-6 6 -33.5 12.5t-50.5 6.5q-52 0 -125.5 -53t-130.5 -133q-101 -139 -156 -279.5t-55 -259.5z" />
<glyph unicode="r" horiz-adv-x="825" d="M150 41q21 122 97 366t148 416q49 117 92 160q56 -9 118 -38.5t87 -59.5q-55 -64 -97 -148.5t-85 -216.5q121 109 203 197.5t151 191.5q14 11 43 11q30 0 56.5 -10t35.5 -25q-36 -95 -36 -195q0 -90 26 -135q-2 -12 -28 -47.5t-56 -65.5q-55 28 -98.5 78.5t-63.5 110.5 q-132 -91 -209 -180t-126.5 -208t-90.5 -313q-37 3 -95.5 41.5t-71.5 69.5z" />
<glyph unicode="s" horiz-adv-x="708" d="M41 -53q0 157 122 273t300 128q0 72 -32 195t-32 178q0 109 82 210t189 124q46 -12 134.5 -102.5t100.5 -137.5q-5 -78 -41.5 -156.5t-68.5 -78.5q-24 3 -27 30q0 6 16.5 49t16.5 62q0 29 -13.5 48t-35.5 19q-82 0 -125 -103.5t-43 -299.5q0 -21 2 -25l143 5q2 -4 2 -17 q0 -18 -8 -26q-96 -22 -116.5 -31.5t-20.5 -32.5q0 -8 1 -32t1 -42q0 -170 -93.5 -275t-258.5 -122q-58 4 -118 53.5t-77 106.5zM188 -45q0 -47 41 -74q98 40 170 147.5t72 213.5q-80 -11 -181.5 -114t-101.5 -173z" />
<glyph unicode="t" horiz-adv-x="720" d="M256 123q0 99 51 285t129 376h-117q-9 12 -17.5 52.5t-8.5 68.5q29 -2 95 -6.5t97 -5.5q61 121 136.5 232t109.5 130q43 0 118 -25t95 -48q-96 -119 -201 -297q92 0 168 8q23 -23 23 -57q-100 -38 -244 -41q-101 -196 -159 -383t-58 -314q0 -91 68 -100q122 15 215 88 q11 -18 14 -31q-23 -35 -106 -90.5t-117 -58.5q-101 3 -196 74t-95 143z" />
<glyph unicode="u" horiz-adv-x="1011" d="M174 119q0 98 16 174q43 181 146 386.5t221 291.5q44 0 99 -16t83 -48q-18 -19 -51 -68t-93 -161t-116 -244q-24 -55 -55 -162.5t-31 -156.5q0 -22 15 -37q29 11 73.5 62.5t134.5 174.5q6 9 36 49t47 64t42.5 63t44 75.5t31.5 70.5q19 51 33 84.5t49.5 91.5t77.5 98 q53 0 114 -20.5t80 -44.5q-28 -68 -104.5 -220.5t-115 -259.5t-38.5 -204q0 -51 11.5 -92t22.5 -64.5t11 -32.5q0 -3 -2 -5t-4 -2l-2 -1q-28 0 -88 24t-106 56q-35 29 -50.5 76t-15.5 90q0 44 10 74q-10 1 -52.5 -51t-95.5 -123t-67 -88q-57 -61 -88 -64q-70 3 -138.5 47.5 t-84.5 112.5z" />
<glyph unicode="v" horiz-adv-x="917" d="M244 27q0 22 18 73t36.5 149.5t18.5 233.5q0 50 -3 136.5t-3 105.5q0 41 6 70t21 54.5t45.5 38.5t75.5 13q83 0 116 -29q-17 -67 -22 -118.5t-8 -190.5q-3 -161 -14 -264t-42 -203q0 -8 7 -8q60 46 152.5 162.5t164.5 236.5q142 243 207 492q26 0 70.5 -16.5t56.5 -30.5 q-11 -260 -354 -651q-103 -121 -202.5 -209.5t-232.5 -169.5q-53 20 -83.5 54t-30.5 71z" />
<glyph unicode="w" horiz-adv-x="1300" d="M217 84q0 81 34.5 273.5t74.5 338.5q27 96 84 148.5t139 52.5q47 0 90.5 -14.5t50.5 -36.5q-33 -27 -60 -62t-46.5 -81.5t-33 -85.5t-25 -98t-17 -94t-14.5 -100t-13 -89q148 196 236 278q41 38 66 71.5t35 54.5t24 60q0 1 8 25.5t10.5 31.5t11.5 29t15.5 33.5t18 28 t24.5 29.5q8 2 35 2q48 0 91.5 -11.5t47.5 -33.5q-25 -32 -48.5 -96t-45 -158.5t-35.5 -163t-33 -178t-24 -136.5q20 8 103.5 107.5t143.5 191.5q74 114 107 214.5t74 314.5q11 16 52 27.5t79 11.5q30 0 45 -11q-10 -113 -36 -203t-78 -178.5t-114.5 -165.5t-165.5 -188 q-53 -58 -87 -93.5t-85 -85.5t-87 -75.5t-56 -25.5q-47 0 -77.5 37t-30.5 94q0 105 22 196q38 150 43 201q-50 -23 -203 -221q-56 -75 -123.5 -175.5t-105.5 -152.5q-121 38 -121 162z" />
<glyph unicode="x" horiz-adv-x="872" d="M57 -16q93 50 220 146t198 179q-67 159 -114.5 334.5t-47.5 257.5q0 28 7.5 37.5t33.5 9.5q41 0 109 -13.5t117 -29.5q-5 -36 -5 -86q0 -162 58 -342q162 184 301 496q51 -9 88.5 -29t46.5 -43q-23 -94 -127.5 -238t-265.5 -305q47 -132 160 -346q-21 -33 -68.5 -56 t-93.5 -26q-90 107 -160 277q-206 -185 -403 -301q-22 5 -37.5 26t-16.5 52z" />
<glyph unicode="y" horiz-adv-x="1001" d="M-193 -598q0 25 29 43q48 -43 74.5 -55.5t71.5 -12.5q233 0 438 263t321 706q-215 -340 -346 -387q-45 2 -91.5 21t-84.5 56t-49 83q0 101 18 174q28 112 79 239.5t129.5 253.5t158.5 185q43 0 98.5 -16t87.5 -48q-33 -29 -109 -155t-157 -318q-25 -60 -55.5 -165.5 t-30.5 -153.5q0 -23 14 -37q40 7 103 64.5t135 164.5q71 107 180.5 309.5t165.5 294.5q54 0 117 -21t82 -44q-148 -314 -217 -529q-94 -305 -196 -503t-249 -351q-193 -202 -395 -202q-101 0 -196 42t-126 99z" />
<glyph unicode="z" horiz-adv-x="966" d="M125 29q0 68 209.5 271.5t476.5 395.5q-158 35 -217 35q-116 0 -199 -69q-94 82 -94 188q0 33 2 39q75 72 184 72q66 0 151.5 -29.5t161.5 -58.5t118 -29q50 0 96 22q19 -13 34 -57t15 -84q-127 -49 -333.5 -227.5t-323.5 -339.5q46 -19 116 -19q93 0 190.5 30.5 t151.5 76.5q97 -62 97 -180q0 -7 -5 -52q-92 -59 -204 -59q-81 0 -219 35t-183 35q-97 0 -160 -93q-26 10 -44 37.5t-21 59.5z" />
<glyph unicode="{" horiz-adv-x="686" d="M248 721l71 33q67 30 112 78.5t70 113.5t40.5 127t36.5 148t45 149q50 133 126 213t169 80q37 0 68 -17t75 -65q-49 -24 -87 -60t-61 -70t-43.5 -88t-30.5 -91.5t-26 -104.5q-12 -50 -19.5 -79.5t-22.5 -76t-30 -76t-39 -67t-51.5 -63t-66.5 -50t-86 -40.5 q153 -91 153 -260q0 -72 -30.5 -168t-66.5 -172.5t-66.5 -155.5t-30.5 -121q0 -55 44.5 -86t133.5 -51l-17 -33q-47 7 -89 17t-90.5 30t-83.5 46t-58 66t-23 89q0 54 29.5 136t65 154.5t65 160.5t29.5 153q0 88 -48.5 124t-135.5 36q-27 15 -31 41z" />
<glyph unicode="|" horiz-adv-x="565" d="M201 -180q6 238 102 631.5t229.5 749t241.5 499.5q48 -9 130 -55.5t100 -73.5q-99 -109 -191.5 -287.5t-160.5 -373t-126.5 -414.5t-95.5 -406.5t-61 -355.5z" />
<glyph unicode="}" horiz-adv-x="686" d="M57 -250q49 24 87 60t61 70t43.5 88t30.5 91.5t26 104.5q12 49 19.5 79t22.5 76t30 76t39.5 67.5t52 63t66.5 50t86 40.5q-154 91 -154 261q0 72 30.5 167.5t67 172t67 155.5t30.5 121q0 55 -45 85.5t-134 51.5l17 33q47 -7 89 -17t90.5 -30t83.5 -46t58 -66t23 -89 q0 -54 -29.5 -136t-65 -154.5t-65 -160.5t-29.5 -153q0 -88 49 -124t136 -36q26 -14 30 -41l-71 -32q-67 -30 -112 -78.5t-70 -113.5t-40 -127.5t-36 -148.5t-45 -149q-50 -133 -126 -213t-169 -80q-37 0 -68.5 17t-75.5 65z" />
<glyph unicode="~" horiz-adv-x="903" d="M283 551q74 45 182 45q41 0 117 -9t112 -9q130 0 187 36q26 -26 46.5 -71.5t28.5 -89.5q-77 -60 -176 -60q-66 0 -126 20t-128 40t-153 20q-45 0 -72 -2q-10 15 -18 80z" />
<glyph unicode="&#xa1;" horiz-adv-x="561" d="M-178 -512q219 180 401 506.5t246 685.5q31 -8 49 -16t38 -25t29 -46t9 -73q0 -109 -102 -386t-234.5 -535t-208.5 -314q-64 13 -141 82.5t-86 120.5zM492 854q0 65 27.5 145t68.5 80q55 0 114.5 -39t88.5 -90q-19 -21 -42 -59t-39 -65t-41 -48.5t-53 -21.5 q-43 0 -83.5 36.5t-40.5 61.5z" />
<glyph unicode="&#xa2;" horiz-adv-x="1034" d="M319 637q0 110 42.5 213.5t119.5 187.5t195 140t258 67q36 151 59 287q86 -24 142 -94q-12 -36 -32.5 -101t-29.5 -94q87 -16 142 -69t55 -132q0 -94 -48.5 -170.5t-107.5 -76.5q-50 0 -92 55q137 125 137 227q0 39 -32 57.5t-83 18.5q-181 -570 -280 -811 q148 52 293 162q7 -6 13.5 -19t6.5 -22q-55 -68 -164 -136t-198 -98q-64 -142 -158 -301q-30 7 -37 31q52 98 111 262q-149 24 -230.5 140t-81.5 276zM547 526q0 -151 125 -190q124 353 233 788q-112 -44 -196 -147t-123 -220.5t-39 -230.5z" />
<glyph unicode="&#xa3;" horiz-adv-x="1327" d="M129 80q93 32 165.5 82t124.5 118t88 141t68 169q-46 -4 -65 -4q-79 0 -114.5 30.5t-35.5 90.5q0 29 9 59q92 -12 157 -12q68 0 101 2l26 100q35 131 69.5 223.5t82 174t106.5 132t139 82t183 39.5q108 -41 162.5 -98.5t54.5 -138.5q0 -109 -127 -301q-34 11 -67 43.5 t-46 72.5q150 103 150 211q0 85 -94 127q-32 -5 -61 -19t-52.5 -32.5t-47 -48.5t-41 -57t-37.5 -69.5t-33.5 -74.5t-31.5 -83.5t-29 -85t-29.5 -90.5t-29.5 -89q38 4 87.5 9.5t77 8.5t40.5 3q91 0 117 -160q-85 10 -147 10q-100 0 -226 -18q-44 -114 -89.5 -200.5t-79 -133 t-72 -79.5t-58 -43.5t-47.5 -20.5q51 0 180 -18.5t199 -18.5q210 0 356 129q56 -85 56 -193q0 -32 -6 -59q-162 -107 -338 -107q-75 0 -162.5 19t-153.5 42.5t-147 42.5t-146 19q-93 0 -114 -55q-24 0 -46.5 40t-25.5 89z" />
<glyph unicode="&#xa4;" horiz-adv-x="1267" d="M332 229q71 30 215 140q-55 78 -55 196q0 92 38 198.5t103 201.5q-76 141 -150 301q24 47 97 47q10 0 34 -4q15 -103 88 -258q134 147 277 147q70 0 126.5 -37t88.5 -104q79 120 102 198q94 0 123 -65q-126 -176 -192 -262q2 -8 2 -27q0 -125 -48.5 -238.5t-129.5 -203.5 q67 -92 113.5 -143t99.5 -85q-6 -25 -22.5 -41.5t-37.5 -17.5q-101 81 -213 227q-68 -60 -139.5 -93.5t-132.5 -33.5q-64 0 -117 39q-112 -85 -221 -151q-21 4 -34 23t-15 46zM666 473q0 -68 22 -101.5t55 -33.5q76 0 166 109t149.5 250.5t59.5 238.5q0 106 -84 106 q-74 0 -143.5 -53t-118 -135.5t-77.5 -183.5t-29 -197z" />
<glyph unicode="&#xa5;" horiz-adv-x="1394" d="M467 299q0 32 8 59q90 -12 146 -12q64 0 174 4q11 33 29.5 92t25.5 82q-98 -12 -150 -12q-68 0 -101.5 33t-33.5 88q0 32 8 59q90 -12 146 -12q78 0 117 2q-103 315 -181.5 508t-142.5 266q40 15 154.5 32.5t195.5 20.5q0 -149 70 -450.5t115 -351.5q299 329 501 780 q53 -6 102 -28t79 -52q-392 -469 -553 -696q85 10 112 10q88 0 113 -160q-85 10 -141 10q-89 0 -177 -10q-25 -87 -51 -190q148 16 158 16q88 0 113 -160q-94 11 -142 11q-70 0 -164 -11q-53 -244 -53 -377q-45 0 -172.5 30.5t-142.5 45.5q48 86 112 262q-78 -10 -139 -10 q-68 0 -101.5 33t-33.5 88z" />
<glyph unicode="&#xa6;" horiz-adv-x="548" d="M203 -186q4 210 34 484.5t80 385.5q42 -2 126.5 -36.5t123.5 -67.5q-182 -443 -200 -846zM434 891q68 263 155 484t165 325q50 -9 140 -56t107 -73q-223 -246 -397 -776z" />
<glyph unicode="&#xa7;" horiz-adv-x="849" d="M176 -184q0 74 72 133q-10 -36 -10 -70q0 -78 67 -78q77 0 165.5 87.5t88.5 160.5q0 39 -34 66.5t-82 46.5t-96 42t-82 66.5t-34 106.5q0 107 84.5 203.5t200.5 130.5q68 -17 150 -95q-71 -28 -132 -90.5t-61 -126.5q0 -41 29 -78t70.5 -66t82.5 -58.5t70 -69t29 -84.5 q0 -74 -69 -151.5t-172.5 -127t-199.5 -49.5q-70 0 -103.5 28.5t-33.5 72.5zM446 948q0 50 27 99t66.5 85t90.5 69t92.5 53t80.5 34q64 -3 125 -39t100 -92q-113 -16 -206 -91t-93 -163q0 -37 19 -72.5t46 -65t54 -59.5t46 -66.5t19 -74.5q0 -90 -94.5 -165.5t-216.5 -96.5 q-27 32 -27 57q4 3 34.5 27t46.5 39t39.5 41t34.5 54.5t11 58.5q0 46 -30.5 83.5t-73.5 65t-86.5 56t-74 70t-30.5 93.5z" />
<glyph unicode="&#xa8;" horiz-adv-x="624" d="M41 1239q0 188 119 195q29 -3 74.5 -31t64.5 -60q0 -1 -32.5 -52t-71 -107t-50.5 -66q-83 37 -104 121zM309 1194q0 190 115 195q26 -2 72.5 -30.5t68.5 -60.5q0 -8 -67 -108.5t-90 -112.5q-72 27 -99 117z" />
<glyph unicode="&#xa9;" horiz-adv-x="1366" d="M299 459q0 123 60.5 264t156 257.5t224 193.5t253.5 77q87 0 176 -38t159.5 -101.5t115.5 -154t45 -187.5q0 -116 -76 -227l-4 14q31 69 31 172q0 78 -34 153t-86 128.5t-115 86.5t-120 33q-83 0 -185.5 -70.5t-186 -172t-140.5 -222t-57 -214.5q0 -104 73.5 -166 t217.5 -62q155 0 309.5 74.5t263.5 218.5l11 -8q-104 -187 -280.5 -303.5t-391.5 -116.5q-203 0 -311.5 103.5t-108.5 267.5zM725 549q0 58 33 130t84.5 133t121 102.5t134.5 41.5q70 0 108.5 -42.5t38.5 -102.5q0 -59 -40 -101.5t-118 -43.5q2 3 27 30.5t43.5 56t18.5 48.5 q0 33 -48 41q-87 -18 -174.5 -124t-87.5 -177q0 -28 16.5 -43t45.5 -15q34 0 100 31t90 33q5 0 10.5 -6t6.5 -13q-6 -15 -100 -68t-152 -61q-78 10 -118 49t-40 101z" />
<glyph unicode="&#xaa;" horiz-adv-x="759" d="M416 1010q0 91 60 197t149.5 179.5t169.5 77.5q31 -6 69 -40.5t41 -59.5q-78 -10 -163 -76.5t-140 -157.5t-55 -167q0 -26 20 -31q99 17 250 233q87 123 144 232q31 0 70.5 -16.5t37.5 -28.5q-59 -107 -96 -211t-37 -168q0 -75 39 -92q-44 -23 -96 -23q-80 0 -80 94 q0 75 55 197q-68 -118 -156 -201t-161 -92q-54 1 -87.5 44.5t-33.5 109.5z" />
<glyph unicode="&#xab;" horiz-adv-x="2199" d="M236 569q19 21 64 40t86 30t110.5 28.5t101.5 26.5q142 40 253 96t316 183q56 -24 106 -88.5t50 -106.5q0 -53 -63 -129q-14 27 -46 27q-26 0 -102 -17q-105 -24 -375 -115t-284 -95q19 -35 57.5 -64t142.5 -84q88 -48 285 -111q9 -3 41.5 -12t36.5 -10q-1 -17 -18.5 -36 t-34.5 -26q-174 40 -291.5 78.5t-229.5 104.5q-105 62 -161 149q-43 70 -45 131zM1280 569q19 21 64 40t86 30t110.5 28.5t101.5 26.5q142 40 254 96t316 183q56 -24 105.5 -88t49.5 -107q0 -53 -63 -129q-14 27 -45 27q-25 0 -102 -17q-105 -24 -376 -115t-284 -95 q19 -35 57.5 -63.5t143.5 -84.5q90 -49 284 -111q9 -3 41.5 -12t36.5 -10q-1 -17 -18.5 -36t-34.5 -26q-174 40 -291 78.5t-229 104.5q-106 62 -162 149q-43 70 -45 131z" />
<glyph unicode="&#xac;" horiz-adv-x="1232" d="M303 692q0 20 12 62q51 -9 146 -9q289 0 446.5 17t292.5 51q-10 -85 -10 -141q0 -42 19.5 -167t19.5 -186q0 -76 -26 -118.5t-91 -42.5q-19 0 -61 12q14 71 14 160q0 119 -33 284q-131 0 -328.5 -30.5t-252.5 -30.5q-74 0 -111 30.5t-37 108.5z" />
<glyph unicode="&#xad;" horiz-adv-x="1077" d="M279 516q0 20 12 62q51 -9 145 -9q163 0 360.5 20.5t209.5 20.5q39 0 69 -47.5t43 -134.5q-85 10 -141 10q-127 0 -306.5 -28.5t-252.5 -28.5q-63 0 -101 36t-38 99z" />
<glyph unicode="&#xae;" horiz-adv-x="1363" d="M299 459q0 123 60.5 264t156 257.5t224 193.5t253.5 77q87 0 176 -38t159.5 -101.5t115.5 -154t45 -187.5q0 -117 -78 -227l-4 14q33 67 33 172q0 78 -34 153t-86 128.5t-115 86.5t-120 33q-83 0 -186 -70.5t-186.5 -172t-141 -222t-57.5 -214.5q0 -104 74.5 -166 t218.5 -62q155 0 309.5 74.5t263.5 218.5l11 -8q-105 -187 -282 -303.5t-392 -116.5q-202 0 -310 103.5t-108 267.5zM657 463q45 36 96.5 92t82 95t83.5 110t66 88q-74 -10 -113 -49q-24 8 -44 32t-23 52q73 61 199 61q90 0 163.5 -39t98.5 -112q-3 -56 -33.5 -97t-77 -61.5 t-92.5 -29.5t-92 -9q64 -74 153 -74q48 0 90 29q0 -54 -32 -88.5t-92 -34.5q-41 0 -70 17.5t-43 39.5t-39 46.5t-57 35.5q-93 -81 -107 -168q-78 0 -117 64zM954 647q2 -2 11 -2q197 0 241 111q-3 23 -26.5 46t-57.5 38q-46 -40 -97 -98.5t-71 -94.5z" />
<glyph unicode="&#xaf;" horiz-adv-x="708" d="M41 1151q4 54 4 135q91 -6 186 -6q219 0 400 41q14 -27 25.5 -81.5t11.5 -96.5q-158 -19 -316 -19q-185 0 -311 27z" />
<glyph unicode="&#xb0;" horiz-adv-x="786" d="M432 1051q0 110 52.5 214.5t136.5 169t172 64.5q120 0 210.5 -90.5t90.5 -210.5q0 -98 -58.5 -184t-157 -137.5t-208.5 -51.5q-114 0 -176 59.5t-62 166.5zM563 1065q0 -137 127 -137q112 0 197.5 87.5t85.5 203.5q0 74 -44 119.5t-114 45.5q-99 0 -175.5 -96.5 t-76.5 -222.5z" />
<glyph unicode="&#xb1;" horiz-adv-x="1263" d="M258 229q0 15 14 64q64 -10 168 -10q190 0 419 20.5t243 20.5q45 0 79.5 -48t51.5 -135q-110 11 -164 11q-147 0 -356 -29t-293 -29q-74 0 -118 36t-44 99zM340 762q0 14 14 63q64 -10 168 -10q75 0 207 4q99 241 191 350q50 -9 140 -56t107 -73q-90 -99 -157 -198 q31 2 70 6t64 6t40 2q45 0 79.5 -47.5t51.5 -134.5q-100 10 -164 10q-113 0 -242 -14q-66 -126 -139 -324q-75 11 -170 96q18 65 59 195q-88 -10 -157 -10q-74 0 -118 36t-44 99z" />
<glyph unicode="&#xb2;" horiz-adv-x="737" d="M375 881q16 44 67 82t185 116q135 79 202.5 137t67.5 111q0 32 -22.5 52t-59.5 20q-58 0 -103.5 -36.5t-45.5 -86.5q0 -33 47 -74q-41 -8 -60 -8q-61 0 -102 28t-41 68q0 64 94.5 114t208.5 50q103 0 165 -39.5t62 -105.5q0 -25 -10 -50t-36 -52.5t-48 -47.5t-70 -53 t-75.5 -51t-89.5 -58q-91 -59 -121 -94q173 13 305 98q18 -16 35.5 -45t17.5 -53q0 -41 -56.5 -57t-129.5 -13t-158 -2.5t-127 -27.5q-80 24 -102 78z" />
<glyph unicode="&#xb3;" horiz-adv-x="700" d="M381 930q0 1 1 11t1 11q70 -12 109 -12q76 0 155 14.5t139 47t60 73.5q0 38 -74 51q-68 -24 -117 -24q-35 0 -58.5 23.5t-23.5 66.5q55 0 107.5 7.5t102 24.5t81 48.5t33.5 73.5q-13 20 -55 20q-52 0 -119.5 -23t-112.5 -57q-71 28 -71 90q0 13 4 21q37 20 114.5 33.5 t137.5 13.5q96 0 143 -34t47 -81q0 -39 -35 -83t-96 -79q64 -9 91.5 -35.5t27.5 -72.5q0 -61 -48 -109t-123.5 -75t-158 -40.5t-162.5 -13.5q-48 7 -74 36.5t-26 72.5z" />
<glyph unicode="&#xb4;" horiz-adv-x="583" d="M41 1114q91 34 194 136t189 243q43 -26 81 -101t38 -132q-158 -105 -241.5 -145t-147.5 -40q-65 0 -113 39z" />
<glyph unicode="&#xb5;" horiz-adv-x="1062" d="M113 -293q0 47 34.5 207t91 363t147.5 403t187 291q46 0 108 -16.5t89 -47.5q-18 -19 -51 -68t-93 -161t-116 -244q-24 -55 -55 -162.5t-31 -156.5q0 -23 14 -37q30 12 75 64t134 173q6 9 36 49t47 64t42.5 63t44 75.5t31.5 70.5q19 51 33 84.5t49.5 91.5t77.5 98 q53 0 114 -20.5t80 -44.5q-28 -68 -104.5 -220.5t-115 -259.5t-38.5 -204q0 -51 11 -92t22.5 -64.5t11.5 -32.5q0 -3 -2 -5t-4 -2l-2 -1q-29 0 -89 24.5t-106 55.5q-35 29 -50 75.5t-15 90.5t10 74q-10 1 -52.5 -52t-94 -122t-68.5 -88q-23 -26 -49 -44t-39 -20 q-73 5 -86 61q-70 -216 -70 -327q0 -152 107 -178q-5 -29 -14 -47q-133 22 -192.5 76.5t-59.5 162.5z" />
<glyph unicode="&#xb6;" horiz-adv-x="1249" d="M362 813q0 105 40 201t108.5 169t158 133.5t191 101t205 65t203.5 30.5q110 0 177.5 -69.5t67.5 -173.5q0 -111 -51 -111q-3 50 -23 69t-69 19q-79 0 -186 -29t-216 -80.5t-203 -115.5t-153 -141.5t-59 -149.5q0 -74 82 -74q125 0 297 95q89 247 92 297q97 0 172 -41 q-143 -284 -282.5 -702t-139.5 -546q0 -56 8 -67q-76 13 -122 38t-70 74q0 20 45.5 148t140 378.5t131.5 352.5q-198 -135 -315 -135q-41 0 -79.5 14t-73.5 43t-56 82.5t-21 124.5zM918 63q0 79 70.5 277t157 421.5t109.5 323.5q82 0 175 -38q-30 -92 -128 -326.5 t-167.5 -429t-69.5 -289.5q0 -46 12 -76q-62 0 -110.5 38t-48.5 99z" />
<glyph unicode="&#xb7;" horiz-adv-x="464" d="M281 459q0 19 7 54t14.5 63.5t17.5 64.5t12 43q43 0 118.5 -39.5t104.5 -85.5q-27 -64 -86 -116t-92 -52q-28 5 -58.5 25.5t-37.5 42.5z" />
<glyph unicode="&#xb8;" horiz-adv-x="522" d="M41 -309q17 49 88.5 157.5t144.5 186.5l52 -6q-51 -60 -98.5 -132.5t-69.5 -123.5q38 20 101.5 36.5t102.5 16.5q19 0 69 -42.5t50 -57.5q0 -26 -84 -110t-181 -157t-128 -73q-7 0 -25 30.5t-18 42.5q96 80 146 136t104 143q-33 -6 -110 -29.5t-128 -42.5q-11 6 -16 25z " />
<glyph unicode="&#xb9;" horiz-adv-x="638" d="M346 879q18 13 191 36q46 141 145 359q-44 -18 -109 -60q-36 9 -36 39q32 31 85 67t94.5 68.5t65.5 69.5q57 -11 84.5 -16.5t59.5 -17.5t45 -27q-49 -25 -126.5 -161t-148.5 -306q10 0 28 1t24 1q46 0 72 -16t26 -44q0 -2 -4.5 -18.5t-5.5 -22.5q-9 1 -42 4t-49 3 q-45 0 -133 -10.5t-127 -10.5q-49 0 -87 17t-52 45z" />
<glyph unicode="&#xba;" horiz-adv-x="688" d="M422 1047q0 101 69 211t173 176q77 51 151 51q45 -18 92 -90q4 0 13.5 1t13.5 1q78 0 78 -119q0 -159 -114 -281.5t-292 -154.5q-83 6 -133.5 62.5t-50.5 142.5zM563 983q0 -31 11.5 -59t25.5 -31q133 25 219 135t86 258q0 60 -20 86q-110 -30 -203 -131 q-51 -58 -85 -132.5t-34 -125.5z" />
<glyph unicode="&#xbb;" horiz-adv-x="2136" d="M199 193q0 44 46 81.5t124 63.5q392 130 659 211q-19 34 -57.5 62.5t-143.5 84.5q-104 56 -236.5 94t-248.5 39q1 18 19 39t34 27q89 0 173 -14t170.5 -44.5t145 -56t154.5 -71.5q50 -30 91.5 -65.5t77 -94t38.5 -121.5q-19 -21 -64 -40t-86 -30t-110.5 -28.5 t-101.5 -26.5q-143 -41 -255 -96.5t-315 -181.5q-114 90 -114 168zM1182 193q0 44 46 81.5t124 63.5q392 130 659 211q-19 34 -57.5 62.5t-143.5 84.5q-104 56 -236.5 94t-248.5 39q1 18 19 39t34 27q89 0 173 -14t170.5 -44.5t145 -56t154.5 -71.5q50 -30 91.5 -65.5 t77 -94t38.5 -121.5q-19 -21 -64 -40t-86 -30t-110.5 -28.5t-101.5 -26.5q-143 -41 -255 -96.5t-315 -181.5q-114 90 -114 168z" />
<glyph unicode="&#xbc;" horiz-adv-x="1611" d="M358 14q236 214 591.5 698t547.5 847q50 0 117 -33t80 -66q-291 -433 -655.5 -876t-594.5 -664q-24 5 -51.5 33.5t-34.5 60.5zM362 879q18 13 191 36q46 141 145 359q-41 -17 -108 -60q-37 9 -37 39q30 29 122.5 93t123.5 112q56 -10 84 -16.5t59.5 -18t44.5 -26.5 q-49 -24 -125.5 -160t-148.5 -307q9 0 27 1t24 1q46 0 72 -16t26 -44q0 -2 -4.5 -18.5t-5.5 -22.5q-10 1 -42 4t-48 3q-45 0 -133 -10.5t-127 -10.5q-49 0 -87.5 17t-52.5 45zM950 182q178 139 310 342q116 -28 180 -69q-232 -191 -301 -260q50 -9 94 -9q55 0 84 2 q22 32 67 98t80.5 117t69.5 97q110 -6 160 -62q-117 -117 -199 -231q16 4 31 4q20 -13 26 -37l-96 -27q-73 -111 -117 -243q-56 2 -92.5 9.5t-64.5 31.5q40 95 88 170q-120 0 -182.5 12.5t-137.5 54.5z" />
<glyph unicode="&#xbd;" horiz-adv-x="1658" d="M358 14q236 214 591.5 698t547.5 847q50 0 117 -33t80 -66q-291 -433 -655.5 -876t-594.5 -664q-24 5 -51.5 33.5t-34.5 60.5zM362 879q18 13 191 36q46 141 145 359q-41 -17 -108 -60q-37 9 -37 39q30 29 122.5 93t123.5 112q56 -10 84 -16.5t59.5 -18t44.5 -26.5 q-49 -24 -125.5 -160t-148.5 -307q9 0 27 1t24 1q46 0 72 -16t26 -44q0 -2 -4.5 -18.5t-5.5 -22.5q-10 1 -42 4t-48 3q-45 0 -133 -10.5t-127 -10.5q-49 0 -87.5 17t-52.5 45zM1014 -41q16 44 68 83t184 116q135 79 202.5 137t67.5 111q0 32 -22.5 51.5t-59.5 19.5 q-58 0 -103.5 -36.5t-45.5 -86.5q0 -32 47 -73q-46 -9 -60 -9q-61 0 -102 28.5t-41 68.5q0 64 94.5 113.5t208.5 49.5q103 0 165 -39.5t62 -105.5q0 -21 -9.5 -43.5t-21.5 -41t-39 -43t-47 -40.5t-61 -44t-65 -44t-75 -48q-2 -1 -3.5 -2t-3.5 -2.5t-4 -2.5q-91 -59 -121 -94 q173 13 305 98q18 -16 35.5 -45t17.5 -53q0 -34 -36 -50t-93.5 -18.5t-119 -2t-124.5 -6t-98 -24.5q-80 24 -102 78z" />
<glyph unicode="&#xbe;" horiz-adv-x="1632" d="M379 14q236 214 591.5 698t547.5 847q50 0 116.5 -33t79.5 -66q-292 -434 -656 -877t-593 -663q-24 5 -51.5 33.5t-34.5 60.5zM389 930q0 1 1 11t1 11q70 -12 109 -12q76 0 155 14.5t139 47t60 73.5q0 38 -74 51q-67 -24 -116 -24q-35 0 -58.5 23.5t-23.5 66.5 q55 0 107.5 7.5t102 24.5t80.5 48.5t33 73.5q-13 20 -55 20q-52 0 -119.5 -23t-112.5 -57q-71 28 -71 90q0 13 4 21q37 20 114.5 33.5t137.5 13.5q96 0 143 -34t47 -81q0 -39 -35 -83t-96 -79q64 -9 91.5 -35.5t27.5 -72.5q0 -61 -48 -109t-123.5 -75t-158 -40.5 t-162.5 -13.5q-48 7 -74 36.5t-26 72.5zM971 182q176 137 309 342q116 -28 180 -69q-232 -191 -301 -260q49 -9 94 -9q55 0 84 2q22 32 67 98t80.5 117t69.5 97q110 -6 160 -62q-113 -113 -198 -231q16 4 30 4q21 -14 27 -37l-96 -27q-73 -111 -117 -243q-115 4 -158 41 q40 95 88 170q-120 0 -182 12.5t-137 54.5z" />
<glyph unicode="&#xbf;" horiz-adv-x="966" d="M-6 -346q0 74 24 139.5t81 137t118 133t168 163.5q17 15 25 23q93 87 143.5 181t50.5 171q0 11 -4 43q69 -3 148 -54t104 -108q0 -49 -23 -114t-67 -138t-120.5 -148t-172.5 -132q-157 -93 -239.5 -184t-82.5 -164q0 -64 47 -119t103 -55q41 0 92.5 50.5t88 122 t36.5 128.5q0 28 -6 37q23 4 47 4q80 0 154.5 -29t87.5 -66q-20 -89 -85.5 -184t-149 -160.5t-154.5 -74.5q-106 8 -201 63.5t-154 145t-59 188.5zM723 854q0 65 27.5 145t68.5 80q55 0 114.5 -39t88.5 -90q-22 -24 -52 -78t-58 -85t-64 -31q-43 0 -84 36.5t-41 61.5z" />
<glyph unicode="&#xc0;" d="M125 -27q0 66 72.5 233t199.5 390q-140 4 -164 4q22 55 222 92q161 266 353.5 475.5t360.5 300.5q1 7 2 16t2 14.5t1 8.5q57 0 170.5 -49.5t121.5 -77.5q-70 -124 -135 -364.5t-106 -556.5q-25 -195 -25 -420q0 -123 4 -191q-6 -2 -24 -2q-57 0 -140.5 32.5t-93.5 58.5 q-2 35 -2 106q0 268 41 528q-131 10 -436 21q-227 -416 -250 -748q-98 29 -136 57.5t-38 71.5zM621 713q172 15 391 18q14 78 35.5 168t44.5 184.5t38 176.5q-102 -38 -241 -188.5t-268 -358.5zM1059 1677q0 36 38 77.5t81 53.5q86 -74 188.5 -129t194.5 -75 q-48 -39 -113 -39t-149.5 24t-239.5 88z" />
<glyph unicode="&#xc1;" d="M125 -27q0 66 72.5 233t199.5 390q-140 4 -164 4q22 55 222 92q161 266 353.5 475.5t360.5 300.5q1 7 2 16t2 14.5t1 8.5q57 0 170.5 -49.5t121.5 -77.5q-70 -124 -135 -364.5t-106 -556.5q-25 -195 -25 -420q0 -123 4 -191q-6 -2 -24 -2q-57 0 -140.5 32.5t-93.5 58.5 q-2 35 -2 106q0 268 41 528q-131 10 -436 21q-227 -416 -250 -748q-98 29 -136 57.5t-38 71.5zM621 713q172 15 391 18q14 78 35.5 168t44.5 184.5t38 176.5q-102 -38 -241 -188.5t-268 -358.5zM1163 1604q60 13 127 42t133 71t123 91q43 -12 81 -53.5t38 -77.5 q-155 -64 -239.5 -88t-149.5 -24t-113 39z" />
<glyph unicode="&#xc2;" d="M125 -27q0 66 72.5 233t199.5 390q-140 4 -164 4q22 55 222 92q161 266 353.5 475.5t360.5 300.5q1 7 2 16t2 14.5t1 8.5q57 0 170.5 -49.5t121.5 -77.5q-70 -124 -135 -364.5t-106 -556.5q-25 -195 -25 -420q0 -123 4 -191q-6 -2 -24 -2q-57 0 -140.5 32.5t-93.5 58.5 q-2 35 -2 106q0 268 41 528q-131 10 -436 21q-227 -416 -250 -748q-98 29 -136 57.5t-38 71.5zM621 713q172 15 391 18q14 78 35.5 168t44.5 184.5t38 176.5q-102 -38 -241 -188.5t-268 -358.5zM1018 1610q158 40 280 145q-4 7 -8 25q42 28 125 28q44 0 58 -2 q7 -59 15.5 -100.5t21.5 -73.5t29.5 -52.5t39.5 -35.5q-4 -2 -18 -2q-50 0 -104.5 31.5t-98.5 83.5q-55 -41 -119 -66.5t-111 -25.5q-68 0 -110 45z" />
<glyph unicode="&#xc3;" d="M125 -27q0 66 72.5 233t199.5 390q-140 4 -164 4q22 55 222 92q161 266 353.5 475.5t360.5 300.5q1 7 2 16t2 14.5t1 8.5q57 0 170.5 -49.5t121.5 -77.5q-70 -124 -135 -364.5t-106 -556.5q-25 -195 -25 -420q0 -123 4 -191q-6 -2 -24 -2q-57 0 -140.5 32.5t-93.5 58.5 q-2 35 -2 106q0 268 41 528q-131 10 -436 21q-227 -416 -250 -748q-98 29 -136 57.5t-38 71.5zM621 713q172 15 391 18q14 78 35.5 168t44.5 184.5t38 176.5q-102 -38 -241 -188.5t-268 -358.5zM991 1747q95 -33 189 -33q152 0 350 94q22 -22 41 -70.5t28 -92.5 q-140 -66 -315 -66q-122 0 -200.5 47.5t-92.5 120.5z" />
<glyph unicode="&#xc4;" d="M125 -27q0 66 72.5 233t199.5 390q-140 4 -164 4q22 55 222 92q161 266 353.5 475.5t360.5 300.5q1 7 2 16t2 14.5t1 8.5q57 0 170.5 -49.5t121.5 -77.5q-70 -124 -135 -364.5t-106 -556.5q-25 -195 -25 -420q0 -123 4 -191q-6 -2 -24 -2q-57 0 -140.5 32.5t-93.5 58.5 q-2 35 -2 106q0 268 41 528q-131 10 -436 21q-227 -416 -250 -748q-98 29 -136 57.5t-38 71.5zM621 713q172 15 391 18q14 78 35.5 168t44.5 184.5t38 176.5q-102 -38 -241 -188.5t-268 -358.5zM1161 1614q0 187 119 194q29 -3 74.5 -30.5t64.5 -59.5q0 -1 -11.5 -15 t-29 -35t-35.5 -42.5t-34.5 -39t-22.5 -21.5q-56 10 -85.5 20.5t-39.5 28.5zM1430 1614q0 189 114 194q27 -2 73.5 -30t68.5 -60q0 -3 -27.5 -38.5t-62 -73.5t-48.5 -43q-91 11 -118 51z" />
<glyph unicode="&#xc5;" horiz-adv-x="1318" d="M127 -27q0 66 72.5 233t199.5 390q-140 4 -163 4q22 55 221 92q79 135 177.5 265t196.5 232t182.5 178t162.5 136q-68 51 -68 121q0 79 71 131.5t154 52.5q85 0 145 -47.5t60 -113.5q0 -38 -22 -78q-28 -45 -72.5 -75.5t-95.5 -37.5q111 -49 120 -76 q-70 -124 -135 -364.5t-106 -556.5q-25 -195 -25 -420q0 -123 4 -191q-6 -2 -24 -2q-57 0 -140.5 32.5t-93.5 58.5q-2 35 -2 106q0 268 41 528q-131 10 -436 21q-227 -416 -250 -748q-98 29 -136 57.5t-38 71.5zM623 713q172 15 391 18q14 78 35.5 168t45 184.5t38.5 176.5 q-102 -38 -241.5 -188.5t-268.5 -358.5zM1227 1597q0 -41 17 -67.5t52 -26.5t65.5 15.5t49.5 40t30 52.5t11 54q0 34 -21.5 58t-58.5 24q-48 0 -96.5 -46t-48.5 -104z" />
<glyph unicode="&#xc6;" horiz-adv-x="1871" d="M145 -27q0 58 85 250.5t212 407.5q-127 27 -170 96q126 6 240 18q93 147 188.5 270.5t202 230t216 167t208.5 60.5q37 0 113.5 -3.5t113.5 -3.5q102 0 217 11t192 21.5t85 10.5q47 0 83.5 -59t55.5 -160q-53 19 -188 30t-297 11q-57 0 -88 -2l20 -29 q-28 -37 -68.5 -119.5t-152.5 -332.5q22 1 84.5 4.5t93.5 3.5q108 0 169 -36.5t61 -102.5q0 -37 -17 -64q-101 11 -219 11q-84 0 -256 -11q-94 -214 -156 -398.5t-65 -248.5q369 75 690 96q53 -77 53 -163q0 -38 -4 -56q-152 4 -286 4q-137 0 -249.5 -11t-285.5 -42 q-94 39 -182 180q87 181 254 625q-366 -27 -482 -27h-45q-91 -170 -168 -387q-72 -206 -84 -381q-98 29 -136 57.5t-38 71.5zM655 758q102 10 510 61q64 168 93.5 263t56.5 229q-164 -25 -337.5 -170t-322.5 -383z" />
<glyph unicode="&#xc7;" horiz-adv-x="1239" d="M291 401q0 169 48 335.5t135 304.5t200 244.5t251 166t279 59.5q140 0 219.5 -59.5t79.5 -165.5q0 -80 -44 -169.5t-113 -147.5q-53 8 -93 47.5t-49 93.5q72 59 114 123.5t42 118.5q0 43 -29.5 66.5t-83.5 23.5q-92 0 -198 -73t-189 -193q-285 -411 -285 -838 q0 -149 47 -241.5t126 -110.5q88 20 224.5 112.5t293.5 239.5q20 -20 24 -43q-117 -157 -249 -281.5t-234 -173.5q-55 -70 -78 -131q38 20 102 36.5t103 16.5q19 0 69 -42.5t50 -57.5q0 -26 -84.5 -110t-181.5 -157t-128 -73q-7 0 -25 31t-18 43q97 81 147 136t103 142 q-93 -17 -237 -71q-13 6 -17 24q20 65 129 217q-222 22 -336 163t-114 394z" />
<glyph unicode="&#xc8;" horiz-adv-x="1247" d="M221 14q85 177 256 627q-93 28 -121 102q18 18 181 58q63 167 92 258t53 205q-70 3 -112 39.5t-42 93.5q0 35 17 78q73 -11 178 -11q202 0 444.5 22.5t257.5 22.5q47 0 84 -49.5t56 -138.5q-105 10 -174 10q-138 0 -385 -35q-41 -61 -215 -450q166 26 262 26 q68 0 105.5 -36.5t37.5 -102.5q0 -36 -10 -63q-58 10 -137 10q-52 0 -111 -6.5t-134.5 -18.5t-105.5 -16q-91 -211 -150.5 -390.5t-62.5 -242.5q368 75 691 96q53 -77 53 -163q0 -38 -4 -56q-152 4 -287 4q-137 0 -249.5 -11t-285.5 -42q-94 39 -182 180zM811 1677 q0 36 38 77.5t81 53.5q86 -74 188.5 -129t194.5 -75q-48 -39 -113 -39t-149.5 24t-239.5 88z" />
<glyph unicode="&#xc9;" horiz-adv-x="1247" d="M221 14q85 177 256 627q-93 28 -121 102q18 18 181 58q63 167 92 258t53 205q-70 3 -112 39.5t-42 93.5q0 35 17 78q73 -11 178 -11q202 0 444.5 22.5t257.5 22.5q47 0 84 -49.5t56 -138.5q-105 10 -174 10q-138 0 -385 -35q-41 -61 -215 -450q166 26 262 26 q68 0 105.5 -36.5t37.5 -102.5q0 -36 -10 -63q-58 10 -137 10q-52 0 -111 -6.5t-134.5 -18.5t-105.5 -16q-91 -211 -150.5 -390.5t-62.5 -242.5q368 75 691 96q53 -77 53 -163q0 -38 -4 -56q-152 4 -287 4q-137 0 -249.5 -11t-285.5 -42q-94 39 -182 180zM915 1604 q92 20 194.5 75t188.5 129q43 -12 81 -53.5t38 -77.5q-155 -64 -239.5 -88t-149.5 -24t-113 39z" />
<glyph unicode="&#xca;" horiz-adv-x="1247" d="M221 14q85 177 256 627q-93 28 -121 102q18 18 181 58q63 167 92 258t53 205q-70 3 -112 39.5t-42 93.5q0 35 17 78q73 -11 178 -11q202 0 444.5 22.5t257.5 22.5q47 0 84 -49.5t56 -138.5q-105 10 -174 10q-138 0 -385 -35q-41 -61 -215 -450q166 26 262 26 q68 0 105.5 -36.5t37.5 -102.5q0 -36 -10 -63q-58 10 -137 10q-52 0 -111 -6.5t-134.5 -18.5t-105.5 -16q-91 -211 -150.5 -390.5t-62.5 -242.5q368 75 691 96q53 -77 53 -163q0 -38 -4 -56q-152 4 -287 4q-137 0 -249.5 -11t-285.5 -42q-94 39 -182 180zM770 1610 q159 41 281 145q-5 11 -9 25q42 28 125 28q44 0 58 -2q14 -116 37 -174.5t69 -87.5q-4 -2 -18 -2q-50 0 -104.5 31.5t-98.5 83.5q-56 -41 -119 -66.5t-110 -25.5q-69 0 -111 45z" />
<glyph unicode="&#xcb;" horiz-adv-x="1247" d="M221 14q85 177 256 627q-93 28 -121 102q18 18 181 58q63 167 92 258t53 205q-70 3 -112 39.5t-42 93.5q0 35 17 78q73 -11 178 -11q202 0 444.5 22.5t257.5 22.5q47 0 84 -49.5t56 -138.5q-105 10 -174 10q-138 0 -385 -35q-41 -61 -215 -450q166 26 262 26 q68 0 105.5 -36.5t37.5 -102.5q0 -36 -10 -63q-58 10 -137 10q-52 0 -111 -6.5t-134.5 -18.5t-105.5 -16q-91 -211 -150.5 -390.5t-62.5 -242.5q368 75 691 96q53 -77 53 -163q0 -38 -4 -56q-152 4 -287 4q-137 0 -249.5 -11t-285.5 -42q-94 39 -182 180zM913 1614 q0 187 119 194q29 -3 74.5 -30.5t64.5 -59.5q0 -1 -28 -35.5t-61.5 -72.5t-43.5 -45q-108 19 -125 49zM1182 1614q0 189 114 194q27 -2 73.5 -30t68.5 -60q0 -7 -59 -77t-79 -78q-91 11 -118 51z" />
<glyph unicode="&#xcc;" horiz-adv-x="645" d="M268 117q0 143 82 436.5t193 562t186 346.5q43 -3 125 -47.5t98 -79.5q-84 -76 -175 -274.5t-158 -421t-110.5 -434.5t-43.5 -326q0 -34 6 -43q-41 2 -65.5 15t-32.5 28.5t-19.5 32t-27.5 22.5q-25 9 -41.5 73.5t-16.5 109.5zM657 1677q0 36 38 77.5t81 53.5 q86 -74 188.5 -129t194.5 -75q-48 -39 -112 -39q-65 0 -150 24t-240 88z" />
<glyph unicode="&#xcd;" horiz-adv-x="645" d="M268 117q0 143 82 436.5t193 562t186 346.5q43 -3 125 -47.5t98 -79.5q-84 -76 -175 -274.5t-158 -421t-110.5 -434.5t-43.5 -326q0 -34 6 -43q-41 2 -65.5 15t-32.5 28.5t-19.5 32t-27.5 22.5q-25 9 -41.5 73.5t-16.5 109.5zM762 1604q92 20 194.5 75t188.5 129 q43 -12 81 -53.5t38 -77.5q-155 -64 -240 -88t-150 -24q-64 0 -112 39z" />
<glyph unicode="&#xce;" horiz-adv-x="645" d="M268 117q0 143 82 436.5t193 562t186 346.5q43 -3 125 -47.5t98 -79.5q-84 -76 -175 -274.5t-158 -421t-110.5 -434.5t-43.5 -326q0 -34 6 -43q-41 2 -65.5 15t-32.5 28.5t-19.5 32t-27.5 22.5q-25 9 -41.5 73.5t-16.5 109.5zM616 1610q159 41 281 145q-3 7 -8 25 q42 28 125 28q43 0 57 -2q14 -116 37.5 -174.5t69.5 -87.5q-4 -2 -19 -2q-50 0 -104.5 31.5t-98.5 83.5q-56 -41 -119 -66.5t-110 -25.5q-69 0 -111 45z" />
<glyph unicode="&#xcf;" horiz-adv-x="645" d="M268 117q0 143 82 436.5t193 562t186 346.5q43 -3 125 -47.5t98 -79.5q-84 -76 -175 -274.5t-158 -421t-110.5 -434.5t-43.5 -326q0 -34 6 -43q-41 2 -65.5 15t-32.5 28.5t-19.5 32t-27.5 22.5q-25 9 -41.5 73.5t-16.5 109.5zM760 1614q0 187 119 194q29 -3 74.5 -30.5 t64.5 -59.5q0 -1 -28 -35.5t-61.5 -72.5t-43.5 -45q-108 19 -125 49zM1028 1614q0 189 115 194q27 -2 73 -30t68 -60q0 -7 -58.5 -77t-78.5 -78q-92 12 -119 51z" />
<glyph unicode="&#xd0;" horiz-adv-x="1593" d="M319 1092q40 189 220.5 304t439.5 115q216 0 385.5 -82t264.5 -232t95 -343q0 -196 -75 -382t-198.5 -323.5t-292 -221t-347.5 -83.5q-167 0 -287 67.5t-180 194.5q55 125 186 463q-90 5 -188 23q6 40 6 135q111 -6 240 -6q175 463 229 641q-129 -53 -221 -163t-139 -271 q-48 16 -87.5 60t-50.5 104zM580 41q56 -18 157 -18q163 0 314 77t260.5 204.5t175 301t65.5 359.5q0 209 -130 326.5t-355 117.5q-100 0 -195 -29q81 -29 143 -64.5t89 -60.5q-73 -104 -270 -524q94 10 217 31q17 -26 31 -80.5t14 -97.5q-173 -19 -336 -19 q-180 -410 -180 -524z" />
<glyph unicode="&#xd1;" horiz-adv-x="1398" d="M190 -2q0 118 100.5 414t232.5 589.5t220 419.5l-14 86q58 0 184.5 -50t135.5 -77q-23 -127 -23 -360q0 -257 20 -463t78 -410q66 329 149 634.5t163 504.5t129 205q44 -8 99.5 -49.5t78.5 -85.5q-74 -30 -154 -164.5t-145 -316.5t-118.5 -379.5t-83.5 -369.5t-32 -271 q0 -5 2 -7q-8 -2 -26 -2q-96 0 -168.5 24.5t-93.5 66.5q-81 327 -118 632t-50 682q-76 -121 -164 -372t-148.5 -518t-60.5 -424q0 -69 6 -93q-117 35 -158 67t-41 87zM907 1747q95 -33 189 -33q152 0 350 94q23 -23 42 -71.5t28 -91.5q-140 -66 -316 -66q-122 0 -200.5 47.5 t-92.5 120.5z" />
<glyph unicode="&#xd2;" horiz-adv-x="1480" d="M276 301q0 124 28 264t77 274t120 257.5t152.5 216t179 148t195.5 55.5q63 0 123 -25q77 -33 156.5 -94.5t83.5 -93.5q-66 14 -134 14q-91 0 -184 -45.5t-173 -123t-150.5 -183t-120 -223t-78.5 -246t-29 -248.5q0 -316 209 -316q100 0 224 73.5t223 193.5 q141 169 225 426t84 510q0 46 -2.5 84t-4.5 55.5t-5.5 38t-4.5 24.5q29 -14 44.5 -23t43.5 -34t43 -54.5t27 -82t12 -119.5q0 -278 -124 -537.5t-322 -431.5q-123 -107 -263 -167t-267 -60q-188 0 -288 121t-100 352zM1122 1677q0 36 38 77.5t81 53.5q86 -74 188.5 -129 t194.5 -75q-48 -39 -113 -39t-149.5 24t-239.5 88z" />
<glyph unicode="&#xd3;" horiz-adv-x="1480" d="M276 301q0 124 28 264t77 274t120 257.5t152.5 216t179 148t195.5 55.5q63 0 123 -25q77 -33 156.5 -94.5t83.5 -93.5q-66 14 -134 14q-91 0 -184 -45.5t-173 -123t-150.5 -183t-120 -223t-78.5 -246t-29 -248.5q0 -316 209 -316q100 0 224 73.5t223 193.5 q141 169 225 426t84 510q0 46 -2.5 84t-4.5 55.5t-5.5 38t-4.5 24.5q29 -14 44.5 -23t43.5 -34t43 -54.5t27 -82t12 -119.5q0 -278 -124 -537.5t-322 -431.5q-123 -107 -263 -167t-267 -60q-188 0 -288 121t-100 352zM1227 1604q92 20 194.5 75t188.5 129q43 -12 81 -53.5 t38 -77.5q-155 -64 -240 -88t-150 -24q-64 0 -112 39z" />
<glyph unicode="&#xd4;" horiz-adv-x="1480" d="M276 301q0 124 28 264t77 274t120 257.5t152.5 216t179 148t195.5 55.5q63 0 123 -25q77 -33 156.5 -94.5t83.5 -93.5q-66 14 -134 14q-91 0 -184 -45.5t-173 -123t-150.5 -183t-120 -223t-78.5 -246t-29 -248.5q0 -316 209 -316q100 0 224 73.5t223 193.5 q141 169 225 426t84 510q0 46 -2.5 84t-4.5 55.5t-5.5 38t-4.5 24.5q29 -14 44.5 -23t43.5 -34t43 -54.5t27 -82t12 -119.5q0 -278 -124 -537.5t-322 -431.5q-123 -107 -263 -167t-267 -60q-188 0 -288 121t-100 352zM1081 1610q159 41 281 145q-4 7 -8 25q42 28 125 28 q43 0 57 -2q14 -116 37 -174.5t69 -87.5q-4 -2 -18 -2q-50 0 -104.5 31.5t-98.5 83.5q-56 -41 -119 -66.5t-110 -25.5q-69 0 -111 45z" />
<glyph unicode="&#xd5;" horiz-adv-x="1480" d="M276 301q0 124 28 264t77 274t120 257.5t152.5 216t179 148t195.5 55.5q63 0 123 -25q77 -33 156.5 -94.5t83.5 -93.5q-66 14 -134 14q-91 0 -184 -45.5t-173 -123t-150.5 -183t-120 -223t-78.5 -246t-29 -248.5q0 -316 209 -316q100 0 224 73.5t223 193.5 q141 169 225 426t84 510q0 46 -2.5 84t-4.5 55.5t-5.5 38t-4.5 24.5q29 -14 44.5 -23t43.5 -34t43 -54.5t27 -82t12 -119.5q0 -278 -124 -537.5t-322 -431.5q-123 -107 -263 -167t-267 -60q-188 0 -288 121t-100 352zM1055 1747q95 -33 188 -33q152 0 350 94 q23 -23 42 -71.5t28 -91.5q-140 -66 -315 -66q-122 0 -200.5 47.5t-92.5 120.5z" />
<glyph unicode="&#xd6;" horiz-adv-x="1480" d="M276 301q0 124 28 264t77 274t120 257.5t152.5 216t179 148t195.5 55.5q63 0 123 -25q77 -33 156.5 -94.5t83.5 -93.5q-66 14 -134 14q-91 0 -184 -45.5t-173 -123t-150.5 -183t-120 -223t-78.5 -246t-29 -248.5q0 -316 209 -316q100 0 224 73.5t223 193.5 q141 169 225 426t84 510q0 46 -2.5 84t-4.5 55.5t-5.5 38t-4.5 24.5q29 -14 44.5 -23t43.5 -34t43 -54.5t27 -82t12 -119.5q0 -278 -124 -537.5t-322 -431.5q-123 -107 -263 -167t-267 -60q-188 0 -288 121t-100 352zM1225 1614q0 187 118 194q29 -3 75 -31t65 -59 q0 -1 -28 -35.5t-61.5 -72.5t-43.5 -45q-108 19 -125 49zM1493 1614q0 189 115 194q27 -2 73 -30t68 -60q0 -7 -58.5 -77t-78.5 -78q-92 12 -119 51z" />
<glyph unicode="&#xd7;" horiz-adv-x="991" d="M303 211q129 179 221 291q-186 150 -186 248q0 51 22 75.5t101 69.5q56 -116 186 -250q187 210 295 287q42 -23 98.5 -77t59.5 -81q-141 -87 -320 -258q112 -108 172 -186q13 -16 13 -45q0 -67 -95 -176q-84 141 -219 276q-122 -131 -248 -285q-60 29 -100 111z" />
<glyph unicode="&#xd8;" horiz-adv-x="1480" d="M174 -78q72 35 158 94q-56 112 -56 285q0 124 28 264t77 274t120 257.5t152.5 216t179 148t195.5 55.5q63 0 123 -25q77 -33 156.5 -94.5t83.5 -93.5q-66 14 -134 14q-91 0 -184 -45.5t-173 -123t-150.5 -183t-120 -223t-78.5 -246t-29 -248.5q0 -32 4 -86 q239 197 505.5 476t455.5 525q-2 72 -17 174q66 -32 97 -65q97 140 133 225q50 0 86 -19t49 -53q-111 -151 -209 -270q14 -65 14 -131q0 -278 -124 -537.5t-322 -431.5q-123 -107 -263 -167t-267 -60q-183 0 -283 115q-74 -52 -154 -99q-23 4 -37 26t-16 52zM549 66 q50 -134 182 -134q100 0 224 73.5t223 193.5q119 142 198 350t103 430q-484 -564 -930 -913z" />
<glyph unicode="&#xd9;" horiz-adv-x="1427" d="M330 270q0 253 104.5 617.5t245.5 623.5q71 -3 173.5 -46.5t139.5 -86.5q-178 -238 -287.5 -559t-109.5 -583q0 -160 48 -232t161 -72q126 0 227.5 89.5t194.5 261.5q109 201 162 477t53 549q0 118 -8 176q23 0 94.5 -16t109.5 -37q-21 -325 -113.5 -661.5t-234.5 -567.5 q-113 -184 -249.5 -279.5t-313.5 -95.5q-190 0 -293.5 112t-103.5 330zM924 1677q0 36 37.5 77.5t80.5 53.5q86 -74 188.5 -129t194.5 -75q-48 -39 -112 -39q-65 0 -149.5 24t-239.5 88z" />
<glyph unicode="&#xda;" horiz-adv-x="1427" d="M330 270q0 253 104.5 617.5t245.5 623.5q71 -3 173.5 -46.5t139.5 -86.5q-178 -238 -287.5 -559t-109.5 -583q0 -160 48 -232t161 -72q126 0 227.5 89.5t194.5 261.5q109 201 162 477t53 549q0 118 -8 176q23 0 94.5 -16t109.5 -37q-21 -325 -113.5 -661.5t-234.5 -567.5 q-113 -184 -249.5 -279.5t-313.5 -95.5q-190 0 -293.5 112t-103.5 330zM1028 1604q92 20 194.5 75t188.5 129q43 -12 81 -53.5t38 -77.5q-155 -64 -239.5 -88t-149.5 -24t-113 39z" />
<glyph unicode="&#xdb;" horiz-adv-x="1427" d="M330 270q0 253 104.5 617.5t245.5 623.5q71 -3 173.5 -46.5t139.5 -86.5q-178 -238 -287.5 -559t-109.5 -583q0 -160 48 -232t161 -72q126 0 227.5 89.5t194.5 261.5q109 201 162 477t53 549q0 118 -8 176q23 0 94.5 -16t109.5 -37q-21 -325 -113.5 -661.5t-234.5 -567.5 q-113 -184 -249.5 -279.5t-313.5 -95.5q-190 0 -293.5 112t-103.5 330zM883 1610q158 40 280 145q-3 7 -8 25q42 28 125 28q43 0 57 -2q14 -116 37.5 -174.5t69.5 -87.5q-4 -2 -19 -2q-50 0 -104 31.5t-98 83.5q-55 -41 -119 -66.5t-111 -25.5q-68 0 -110 45z" />
<glyph unicode="&#xdc;" horiz-adv-x="1427" d="M330 270q0 253 104.5 617.5t245.5 623.5q71 -3 173.5 -46.5t139.5 -86.5q-178 -238 -287.5 -559t-109.5 -583q0 -160 48 -232t161 -72q126 0 227.5 89.5t194.5 261.5q109 201 162 477t53 549q0 118 -8 176q23 0 94.5 -16t109.5 -37q-21 -325 -113.5 -661.5t-234.5 -567.5 q-113 -184 -249.5 -279.5t-313.5 -95.5q-190 0 -293.5 112t-103.5 330zM1026 1614q0 187 119 194q29 -3 74.5 -30.5t64.5 -59.5q0 -1 -28 -35.5t-61.5 -72.5t-43.5 -45q-108 19 -125 49zM1294 1614q0 189 115 194q27 -2 73 -30t68 -60q0 -7 -58.5 -77t-78.5 -78 q-92 12 -119 51z" />
<glyph unicode="&#xdd;" horiz-adv-x="1255" d="M428 1456q40 15 154.5 32.5t195.5 20.5q0 -149 70 -450.5t115 -351.5q299 329 501 780q53 -6 102 -28t79 -52q-235 -282 -376.5 -463t-260.5 -356q-65 -223 -106.5 -424t-41.5 -314q-45 0 -172.5 30.5t-142.5 45.5q25 43 50 100t54.5 142t45 131t49.5 155.5t40 127.5 q-118 366 -202.5 581t-153.5 293zM1004 1604q91 20 193.5 74.5t188.5 129.5q43 -12 81 -53.5t38 -77.5q-155 -64 -239.5 -88t-149.5 -24q-64 0 -112 39z" />
<glyph unicode="&#xde;" d="M227 1001q82 56 217 101t285 69q32 103 82 338q10 0 29 1t28 1q64 0 108 -7t70 -22t38.5 -28.5t25.5 -36.5q-34 -46 -117 -225q226 -4 358 -115t132 -289q0 -148 -95 -277.5t-257.5 -206.5t-350.5 -77q-46 0 -73 4q-45 25 -93 86q-96 -246 -147 -483q-73 18 -124 62 t-93 118q101 195 342 787l61 151q-200 -68 -309 -157q-36 25 -74.5 92t-42.5 114zM655 418q31 -2 95 -2q180 0 330 51t236.5 139t86.5 193q0 108 -74 171.5t-211 63.5q-91 0 -200 -16q-14 -33 -43.5 -100.5t-56 -126.5t-50.5 -113q-60 -129 -113 -260z" />
<glyph unicode="&#xdf;" horiz-adv-x="1228" d="M41 -424q61 330 120 559.5t146 431.5q59 139 129.5 267t165 256.5t199.5 233.5t236.5 192.5t273.5 138.5q98 -58 147 -122.5t49 -160.5q0 -112 -61.5 -246.5t-173.5 -249t-240 -153.5q124 -100 176 -186.5t52 -182.5q0 -133 -80.5 -262t-213.5 -219t-282 -115 q-48 19 -91.5 76.5t-49.5 124.5q127 31 246 107.5t194.5 178.5t75.5 197q0 92 -71 175.5t-208 166.5q127 50 237.5 130.5t185.5 171.5t118 189t43 185q0 44 -27 117q-342 -223 -536 -473t-336 -653q-44 -125 -87.5 -271t-76 -274.5t-56 -230.5t-41 -182t-18.5 -85 q-26 10 -43.5 32t-26 44t-27.5 48.5t-48 43.5z" />
<glyph unicode="&#xe0;" horiz-adv-x="962" d="M170 203q0 111 50 241.5t124.5 236.5t168 179.5t173.5 77.5q41 -11 95.5 -67.5t58.5 -94.5q-106 -17 -221.5 -125t-191 -254.5t-75.5 -269.5q0 -39 29 -49q60 12 138 102t188 275q102 171 198 372q28 0 64.5 -12t62.5 -29t25 -30q-84 -173 -135.5 -340.5t-51.5 -270.5 q0 -120 54 -149q-25 -15 -64 -26t-69 -11q-111 0 -111 152q0 116 78 319q-83 -188 -203 -324t-215 -151q-75 3 -122.5 72.5t-47.5 175.5zM655 1260q0 57 38 132t81 101q86 -141 189 -243t194 -136q-48 -39 -113 -39q-64 0 -147.5 40t-241.5 145z" />
<glyph unicode="&#xe1;" horiz-adv-x="962" d="M170 203q0 111 50 241.5t124.5 236.5t168 179.5t173.5 77.5q41 -11 95.5 -67.5t58.5 -94.5q-106 -17 -221.5 -125t-191 -254.5t-75.5 -269.5q0 -39 29 -49q60 12 138 102t188 275q102 171 198 372q28 0 64.5 -12t62.5 -29t25 -30q-84 -173 -135.5 -340.5t-51.5 -270.5 q0 -120 54 -149q-25 -15 -64 -26t-69 -11q-111 0 -111 152q0 116 78 319q-83 -188 -203 -324t-215 -151q-75 3 -122.5 72.5t-47.5 175.5zM760 1114q91 34 194 136t189 243q43 -26 81 -101t38 -132q-158 -105 -242 -145t-148 -40t-112 39z" />
<glyph unicode="&#xe2;" horiz-adv-x="962" d="M170 203q0 111 50 241.5t124.5 236.5t168 179.5t173.5 77.5q41 -11 95.5 -67.5t58.5 -94.5q-106 -17 -221.5 -125t-191 -254.5t-75.5 -269.5q0 -39 29 -49q60 12 138 102t188 275q102 171 198 372q28 0 64.5 -12t62.5 -29t25 -30q-84 -173 -135.5 -340.5t-51.5 -270.5 q0 -120 54 -149q-25 -15 -64 -26t-69 -11q-111 0 -111 152q0 116 78 319q-83 -188 -203 -324t-215 -151q-75 3 -122.5 72.5t-47.5 175.5zM600 1192q165 58 293 209l-6 33q42 28 125 28q43 0 57 -2q13 -185 37 -278t70 -140q-4 -2 -19 -2q-53 0 -111 59.5t-102 153.5 q-58 -52 -121 -83t-112 -31q-61 0 -111 53z" />
<glyph unicode="&#xe3;" horiz-adv-x="962" d="M170 203q0 111 50 241.5t124.5 236.5t168 179.5t173.5 77.5q41 -11 95.5 -67.5t58.5 -94.5q-106 -17 -221.5 -125t-191 -254.5t-75.5 -269.5q0 -39 29 -49q60 12 138 102t188 275q102 171 198 372q28 0 64.5 -12t62.5 -29t25 -30q-84 -173 -135.5 -340.5t-51.5 -270.5 q0 -120 54 -149q-25 -15 -64 -26t-69 -11q-111 0 -111 152q0 116 78 319q-83 -188 -203 -324t-215 -151q-75 3 -122.5 72.5t-47.5 175.5zM588 1278q95 -33 188 -33q148 0 350 96q23 -25 42 -80t28 -104q-172 -61 -315 -61q-120 0 -199.5 53.5t-93.5 128.5z" />
<glyph unicode="&#xe4;" horiz-adv-x="962" d="M170 203q0 111 50 241.5t124.5 236.5t168 179.5t173.5 77.5q41 -11 95.5 -67.5t58.5 -94.5q-106 -17 -221.5 -125t-191 -254.5t-75.5 -269.5q0 -39 29 -49q60 12 138 102t188 275q102 171 198 372q28 0 64.5 -12t62.5 -29t25 -30q-84 -173 -135.5 -340.5t-51.5 -270.5 q0 -120 54 -149q-25 -15 -64 -26t-69 -11q-111 0 -111 152q0 116 78 319q-83 -188 -203 -324t-215 -151q-75 3 -122.5 72.5t-47.5 175.5zM758 1239q0 188 119 195q29 -3 74.5 -31t64.5 -60q0 -1 -32.5 -52t-71 -107t-50.5 -66q-83 37 -104 121zM1026 1194q0 190 115 195 q26 -2 72.5 -30.5t68.5 -60.5q0 -8 -67.5 -108.5t-90.5 -112.5q-71 27 -98 117z" />
<glyph unicode="&#xe5;" horiz-adv-x="962" d="M170 203q0 111 50 241.5t124.5 236.5t168 179.5t173.5 77.5q41 -11 95.5 -67.5t58.5 -94.5q-106 -17 -221.5 -125t-191 -254.5t-75.5 -269.5q0 -39 29 -49q60 12 138 102t188 275q102 171 198 372q28 0 64.5 -12t62.5 -29t25 -30q-84 -173 -135.5 -340.5t-51.5 -270.5 q0 -120 54 -149q-25 -15 -64 -26t-69 -11q-111 0 -111 152q0 116 78 319q-83 -188 -203 -324t-215 -151q-75 3 -122.5 72.5t-47.5 175.5zM702 1255q0 85 72 142t154 57q84 0 144.5 -51.5t60.5 -122.5q0 -39 -23 -86q-32 -54 -83.5 -87.5t-111.5 -33.5q-81 0 -147 54.5 t-66 127.5zM821 1227q0 -46 17.5 -74.5t52.5 -28.5q68 0 112 56.5t44 117.5q0 37 -21.5 64t-58.5 27q-48 0 -97 -50t-49 -112z" />
<glyph unicode="&#xe6;" horiz-adv-x="1415" d="M184 242q0 117 40.5 229t103 194.5t135 146.5t137.5 98t109 36q39 -10 95 -65t62 -97q-88 -14 -182.5 -88t-165.5 -171t-117.5 -205t-46.5 -189q0 -39 37 -39q59 0 162 86t205 219q36 155 90.5 283.5t101.5 155.5q39 0 94 -25q168 145 320 145q59 0 99.5 -23t97.5 -89 q-12 -233 -158.5 -372.5t-458.5 -223.5q-8 -50 -8 -82q0 -108 78 -143q106 26 216.5 81.5t180.5 118.5q20 -20 31 -39q-104 -110 -222 -181t-216 -81q-65 12 -108 27t-76 40t-50.5 63.5t-26 91.5t-8.5 130q-110 -149 -212.5 -230t-180.5 -81q-42 0 -74 25t-49.5 66.5t-26 89 t-8.5 98.5zM969 326q173 64 296 186t144 258q-114 -5 -243.5 -133.5t-196.5 -310.5z" />
<glyph unicode="&#xe7;" horiz-adv-x="856" d="M209 360q0 113 48.5 225.5t126 196.5t181.5 136.5t209 52.5q106 0 163.5 -53.5t57.5 -151.5q0 -94 -48 -171t-107 -77q-25 0 -50 15t-42 40q137 125 137 228q0 59 -47 59q-40 0 -103 -39.5t-119 -101.5q-180 -202 -180 -469q0 -164 74 -199q61 8 160.5 57t193.5 119 q8 -6 14.5 -19t6.5 -22q-63 -80 -164 -151t-174 -90q-74 -106 -101 -172q38 20 102 36.5t103 16.5q19 0 69 -42.5t50 -57.5q0 -26 -84 -110t-181 -157t-128 -73q-7 0 -25 30.5t-18 42.5q96 80 146 136t104 143q-33 -6 -110 -29.5t-128 -42.5q-11 6 -16 25q11 35 57 110.5 t102 147.5q-120 31 -200 147.5t-80 263.5z" />
<glyph unicode="&#xe8;" horiz-adv-x="827" d="M178 233q0 164 87.5 336t223.5 284t267 112q94 -12 176 -117q-6 -100 -32 -179.5t-68 -139.5t-110.5 -112t-147 -92.5t-189.5 -84.5q0 -8 -1 -26.5t-1 -27.5q0 -41 6.5 -74.5t29 -61t58.5 -27.5q52 0 106 22.5t106.5 64.5t85.5 73.5t77 78.5q20 -17 35 -35 q-92 -121 -202 -203t-208 -104q-139 15 -219 101.5t-80 211.5zM401 317q170 85 276.5 206.5t113.5 256.5q-115 -15 -228.5 -146t-161.5 -317zM639 1260q0 57 38 132t81 101q86 -141 189 -243t194 -136q-48 -39 -113 -39q-64 0 -147.5 40t-241.5 145z" />
<glyph unicode="&#xe9;" horiz-adv-x="827" d="M178 233q0 164 87.5 336t223.5 284t267 112q94 -12 176 -117q-6 -100 -32 -179.5t-68 -139.5t-110.5 -112t-147 -92.5t-189.5 -84.5q0 -8 -1 -26.5t-1 -27.5q0 -41 6.5 -74.5t29 -61t58.5 -27.5q52 0 106 22.5t106.5 64.5t85.5 73.5t77 78.5q20 -17 35 -35 q-92 -121 -202 -203t-208 -104q-139 15 -219 101.5t-80 211.5zM401 317q170 85 276.5 206.5t113.5 256.5q-115 -15 -228.5 -146t-161.5 -317zM743 1114q91 34 194 136t189 243q43 -26 81 -101t38 -132q-158 -105 -241.5 -145t-147.5 -40q-65 0 -113 39z" />
<glyph unicode="&#xea;" horiz-adv-x="827" d="M178 233q0 164 87.5 336t223.5 284t267 112q94 -12 176 -117q-6 -100 -32 -179.5t-68 -139.5t-110.5 -112t-147 -92.5t-189.5 -84.5q0 -8 -1 -26.5t-1 -27.5q0 -41 6.5 -74.5t29 -61t58.5 -27.5q52 0 106 22.5t106.5 64.5t85.5 73.5t77 78.5q20 -17 35 -35 q-92 -121 -202 -203t-208 -104q-139 15 -219 101.5t-80 211.5zM401 317q170 85 276.5 206.5t113.5 256.5q-115 -15 -228.5 -146t-161.5 -317zM584 1192q165 58 293 209l-7 33q42 28 125 28q44 0 58 -2q14 -186 37 -278.5t69 -139.5q-4 -2 -18 -2q-53 0 -111 59.5t-102 153.5 q-58 -51 -121.5 -82.5t-112.5 -31.5q-60 0 -110 53z" />
<glyph unicode="&#xeb;" horiz-adv-x="827" d="M178 233q0 164 87.5 336t223.5 284t267 112q94 -12 176 -117q-6 -100 -32 -179.5t-68 -139.5t-110.5 -112t-147 -92.5t-189.5 -84.5q0 -8 -1 -26.5t-1 -27.5q0 -41 6.5 -74.5t29 -61t58.5 -27.5q52 0 106 22.5t106.5 64.5t85.5 73.5t77 78.5q20 -17 35 -35 q-92 -121 -202 -203t-208 -104q-139 15 -219 101.5t-80 211.5zM401 317q170 85 276.5 206.5t113.5 256.5q-115 -15 -228.5 -146t-161.5 -317zM741 1239q0 188 119 195q29 -3 74.5 -31t64.5 -60q0 -1 -32.5 -52t-70.5 -107t-50 -66q-84 37 -105 121zM1010 1194q0 190 114 195 q26 -2 73 -30.5t69 -60.5q0 -8 -67.5 -108.5t-90.5 -112.5q-71 27 -98 117z" />
<glyph unicode="&#xec;" horiz-adv-x="489" d="M199 115q0 67 67 385q6 30 16.5 66t32.5 92.5t57.5 102.5t78.5 66q40 -5 98 -41t94 -90q-57 -66 -100.5 -148t-66 -143.5t-56.5 -173.5q-7 -24 -20.5 -63.5t-20 -60t-12 -48.5t-5.5 -51q0 -42 -2 -55.5t-10 -13.5q-9 0 -31.5 11t-50.5 30.5t-48.5 55.5t-20.5 79z M414 1159q0 57 37.5 132.5t80.5 101.5q86 -141 189 -243t194 -136q-48 -39 -112 -39t-148 39.5t-241 144.5z" />
<glyph unicode="&#xed;" horiz-adv-x="489" d="M199 115q0 67 67 385q6 30 16.5 66t32.5 92.5t57.5 102.5t78.5 66q40 -5 98 -41t94 -90q-57 -66 -100.5 -148t-66 -143.5t-56.5 -173.5q-7 -24 -20.5 -63.5t-20 -60t-12 -48.5t-5.5 -51q0 -42 -2 -55.5t-10 -13.5q-9 0 -31.5 11t-50.5 30.5t-48.5 55.5t-20.5 79z M518 1014q91 34 194 136t189 243q43 -26 81 -101.5t38 -132.5q-157 -105 -241 -144.5t-148 -39.5q-65 0 -113 39z" />
<glyph unicode="&#xee;" horiz-adv-x="616" d="M193 115q0 67 67 385q6 31 16.5 66t32 92t57 103t78.5 66q40 -5 98.5 -41.5t94.5 -89.5q-57 -66 -100.5 -148t-66 -143.5t-56.5 -173.5q-7 -24 -20.5 -63.5t-20 -60t-12 -48.5t-5.5 -51q0 -42 -2 -55.5t-10 -13.5q-9 0 -31.5 11t-50.5 30.5t-48.5 55.5t-20.5 79z M352 1092q167 58 293 208l-6 33q43 29 125 29q43 0 57 -2q13 -185 37 -278t70 -140q-4 -2 -19 -2q-53 0 -111 59.5t-102 153.5q-58 -52 -121 -83.5t-112 -31.5q-60 0 -111 54z" />
<glyph unicode="&#xef;" horiz-adv-x="489" d="M199 115q0 67 67 385q6 30 16.5 66t32.5 92.5t57.5 102.5t78.5 66q40 -5 98 -41t94 -90q-57 -66 -100.5 -148t-66 -143.5t-56.5 -173.5q-7 -24 -20.5 -63.5t-20 -60t-12 -48.5t-5.5 -51q0 -42 -2 -55.5t-10 -13.5q-9 0 -31.5 11t-50.5 30.5t-48.5 55.5t-20.5 79z M516 1139q0 187 119 194q29 -3 74.5 -30.5t64.5 -59.5q0 -1 -32.5 -52t-70.5 -107t-50 -66q-84 37 -105 121zM784 1094q0 189 115 194q27 -2 73 -30t68 -60q0 -8 -67 -108.5t-90 -112.5q-72 27 -99 117z" />
<glyph unicode="&#xf0;" horiz-adv-x="886" d="M162 186q0 137 76.5 310t190.5 304t216 156q40 0 94 -25t95 -63q-21 185 -89 349q-86 -35 -221 -103q-23 13 -50.5 62.5t-39.5 97.5q140 54 240 88q-47 86 -113 192q14 39 77 89t114 59q88 -98 159 -266q115 30 209 43q24 -59 35 -129q-95 -25 -192 -54q69 -217 69 -407 q0 -156 -52 -329.5t-133.5 -314t-187 -240t-206.5 -116.5q-141 15 -216 91t-75 206zM344 88q0 -102 92 -117q94 33 188.5 163.5t154 306t59.5 331.5q0 49 -2 59q-95 -41 -212.5 -179t-198.5 -299.5t-81 -264.5z" />
<glyph unicode="&#xf1;" horiz-adv-x="1105" d="M154 57q0 79 43 234t110 309q48 112 98 204.5t81 138t44 50.5q53 -17 100.5 -72.5t69.5 -123.5q-22 -55 -152.5 -275t-139.5 -291q46 50 148.5 171t123.5 143q54 58 95.5 98.5t106 97t123 87t105.5 30.5q87 0 145 -110q0 -2 -6.5 -6t-21.5 -15.5t-31 -30.5 q-68 -88 -140.5 -254t-72.5 -280q0 -48 12 -64t39 -16q16 0 47 10t39 10q7 -4 13 -17.5t6 -23.5q-33 -30 -87.5 -57t-88.5 -27q-110 0 -152.5 58t-42.5 160q0 56 23.5 135.5t89.5 232.5q-4 0 -27 -12t-63 -41t-76 -64q-178 -173 -330 -383q-36 -52 -56 -78.5t-42.5 -52 t-38.5 -34.5q-71 41 -94 159zM643 1233q95 -33 188 -33q149 0 351 96q22 -25 41 -79.5t28 -104.5q-172 -61 -315 -61q-120 0 -199.5 53.5t-93.5 128.5z" />
<glyph unicode="&#xf2;" horiz-adv-x="903" d="M184 260q0 164 94.5 341.5t239.5 283.5q113 84 211 84q66 -35 129 -146q6 0 18.5 1t18.5 1q109 0 109 -192q0 -256 -159 -454t-405 -251q-117 12 -186.5 103t-69.5 229zM379 158q0 -50 16.5 -95t36.5 -51q184 40 303 218.5t119 416.5q0 93 -27 137q-154 -45 -282 -211 q-70 -94 -118 -213.5t-48 -201.5zM700 1235q0 57 38 132t81 101q86 -141 189 -242.5t194 -135.5q-48 -39 -112 -39t-148.5 40t-241.5 144z" />
<glyph unicode="&#xf3;" horiz-adv-x="903" d="M184 260q0 164 94.5 341.5t239.5 283.5q113 84 211 84q66 -35 129 -146q6 0 18.5 1t18.5 1q109 0 109 -192q0 -256 -159 -454t-405 -251q-117 12 -186.5 103t-69.5 229zM379 158q0 -50 16.5 -95t36.5 -51q184 40 303 218.5t119 416.5q0 93 -27 137q-154 -45 -282 -211 q-70 -94 -118 -213.5t-48 -201.5zM805 1090q91 34 194 135.5t189 242.5q43 -26 81 -101t38 -132q-157 -105 -241 -144.5t-148 -39.5q-65 0 -113 39z" />
<glyph unicode="&#xf4;" horiz-adv-x="903" d="M184 260q0 164 94.5 341.5t239.5 283.5q113 84 211 84q66 -35 129 -146q6 0 18.5 1t18.5 1q109 0 109 -192q0 -256 -159 -454t-405 -251q-117 12 -186.5 103t-69.5 229zM379 158q0 -50 16.5 -95t36.5 -51q184 40 303 218.5t119 416.5q0 93 -27 137q-154 -45 -282 -211 q-70 -94 -118 -213.5t-48 -201.5zM645 1167q165 58 293 209l-6 33q43 29 125 29q43 0 57 -2q13 -185 37 -278t70 -140q-4 -2 -19 -2q-53 0 -111 59.5t-102 153.5q-58 -52 -121 -83.5t-112 -31.5q-61 0 -111 53z" />
<glyph unicode="&#xf5;" horiz-adv-x="903" d="M184 260q0 164 94.5 341.5t239.5 283.5q113 84 211 84q66 -35 129 -146q6 0 18.5 1t18.5 1q109 0 109 -192q0 -256 -159 -454t-405 -251q-117 12 -186.5 103t-69.5 229zM379 158q0 -50 16.5 -95t36.5 -51q184 40 303 218.5t119 416.5q0 93 -27 137q-154 -45 -282 -211 q-70 -94 -118 -213.5t-48 -201.5zM633 1253q92 -32 188 -32q148 0 350 96q23 -25 42 -80t28 -104q-174 -62 -315 -62q-120 0 -199.5 53.5t-93.5 128.5z" />
<glyph unicode="&#xf6;" horiz-adv-x="903" d="M184 260q0 164 94.5 341.5t239.5 283.5q113 84 211 84q66 -35 129 -146q6 0 18.5 1t18.5 1q109 0 109 -192q0 -256 -159 -454t-405 -251q-117 12 -186.5 103t-69.5 229zM379 158q0 -50 16.5 -95t36.5 -51q184 40 303 218.5t119 416.5q0 93 -27 137q-154 -45 -282 -211 q-70 -94 -118 -213.5t-48 -201.5zM803 1214q0 188 119 195q29 -3 74.5 -30.5t64.5 -59.5q0 -1 -32.5 -52t-71 -107t-50.5 -66q-84 37 -104 120zM1071 1169q0 190 115 195q27 -2 73 -30t68 -60q0 -8 -67.5 -108.5t-90.5 -112.5q-71 27 -98 116z" />
<glyph unicode="&#xf7;" horiz-adv-x="1140" d="M246 516q0 15 14 64q70 -11 168 -11q190 0 419 20.5t243 20.5q45 0 79.5 -47.5t51.5 -134.5q-100 10 -164 10q-147 0 -356 -28.5t-293 -28.5q-74 0 -118 36t-44 99zM516 53q0 26 10.5 74t26 106t16.5 64q47 0 129 -43t115 -92q-30 -70 -94.5 -125t-100.5 -55 q-30 3 -62.5 24.5t-39.5 46.5zM721 745q0 26 10.5 74t26 106t16.5 64q47 0 129 -43t115 -92q-30 -70 -94.5 -125t-100.5 -55q-30 3 -62.5 24.5t-39.5 46.5z" />
<glyph unicode="&#xf8;" horiz-adv-x="905" d="M66 -78q69 32 180 119q-62 91 -62 219q0 164 94.5 341.5t239.5 283.5q113 84 211 84q66 -35 129 -146q6 0 18.5 1t18.5 1q22 0 37 -6q82 130 106 207q50 0 86.5 -19t49.5 -53q-86 -123 -177 -243q7 -40 7 -78q0 -256 -159 -454t-405 -251q-79 9 -133 49 q-106 -83 -188 -133q-23 4 -37 26t-16 52zM379 158q267 251 473 540q-5 53 -25 86q-154 -45 -282 -211q-70 -94 -118 -213.5t-48 -201.5zM397 53q15 -34 35 -41q158 34 270.5 173t141.5 335q-235 -278 -447 -467z" />
<glyph unicode="&#xf9;" horiz-adv-x="1011" d="M174 119q0 98 16 174q43 181 146 386.5t221 291.5q44 0 99 -16t83 -48q-18 -19 -51 -68t-93 -161t-116 -244q-24 -55 -55 -162.5t-31 -156.5q0 -22 15 -37q29 11 73.5 62.5t134.5 174.5q6 9 36 49t47 64t42.5 63t44 75.5t31.5 70.5q19 51 33 84.5t49.5 91.5t77.5 98 q53 0 114 -20.5t80 -44.5q-28 -68 -104.5 -220.5t-115 -259.5t-38.5 -204q0 -51 11.5 -92t22.5 -64.5t11 -32.5q0 -3 -2 -5t-4 -2l-2 -1q-28 0 -88 24t-106 56q-35 29 -50.5 76t-15.5 90q0 44 10 74q-10 1 -52.5 -51t-95.5 -123t-67 -88q-57 -61 -88 -64q-70 3 -138.5 47.5 t-84.5 112.5zM676 1260q0 57 38 132t81 101q86 -141 189 -243t194 -136q-48 -39 -113 -39q-64 0 -147.5 40t-241.5 145z" />
<glyph unicode="&#xfa;" horiz-adv-x="1011" d="M174 119q0 98 16 174q43 181 146 386.5t221 291.5q44 0 99 -16t83 -48q-18 -19 -51 -68t-93 -161t-116 -244q-24 -55 -55 -162.5t-31 -156.5q0 -22 15 -37q29 11 73.5 62.5t134.5 174.5q6 9 36 49t47 64t42.5 63t44 75.5t31.5 70.5q19 51 33 84.5t49.5 91.5t77.5 98 q53 0 114 -20.5t80 -44.5q-28 -68 -104.5 -220.5t-115 -259.5t-38.5 -204q0 -51 11.5 -92t22.5 -64.5t11 -32.5q0 -3 -2 -5t-4 -2l-2 -1q-28 0 -88 24t-106 56q-35 29 -50.5 76t-15.5 90q0 44 10 74q-10 1 -52.5 -51t-95.5 -123t-67 -88q-57 -61 -88 -64q-70 3 -138.5 47.5 t-84.5 112.5zM780 1114q91 34 194 136t189 243q43 -26 81 -101t38 -132q-158 -105 -241.5 -145t-147.5 -40q-65 0 -113 39z" />
<glyph unicode="&#xfb;" horiz-adv-x="1011" d="M174 119q0 98 16 174q43 181 146 386.5t221 291.5q44 0 99 -16t83 -48q-18 -19 -51 -68t-93 -161t-116 -244q-24 -55 -55 -162.5t-31 -156.5q0 -22 15 -37q29 11 73.5 62.5t134.5 174.5q6 9 36 49t47 64t42.5 63t44 75.5t31.5 70.5q19 51 33 84.5t49.5 91.5t77.5 98 q53 0 114 -20.5t80 -44.5q-28 -68 -104.5 -220.5t-115 -259.5t-38.5 -204q0 -51 11.5 -92t22.5 -64.5t11 -32.5q0 -3 -2 -5t-4 -2l-2 -1q-28 0 -88 24t-106 56q-35 29 -50.5 76t-15.5 90q0 44 10 74q-10 1 -52.5 -51t-95.5 -123t-67 -88q-57 -61 -88 -64q-70 3 -138.5 47.5 t-84.5 112.5zM621 1192q164 58 292 209l-6 33q42 28 125 28q44 0 58 -2q14 -186 37 -278.5t69 -139.5q-4 -2 -18 -2q-53 0 -111 59.5t-102 153.5q-58 -51 -121.5 -82.5t-112.5 -31.5q-60 0 -110 53z" />
<glyph unicode="&#xfc;" horiz-adv-x="1011" d="M174 119q0 98 16 174q43 181 146 386.5t221 291.5q44 0 99 -16t83 -48q-18 -19 -51 -68t-93 -161t-116 -244q-24 -55 -55 -162.5t-31 -156.5q0 -22 15 -37q29 11 73.5 62.5t134.5 174.5q6 9 36 49t47 64t42.5 63t44 75.5t31.5 70.5q19 51 33 84.5t49.5 91.5t77.5 98 q53 0 114 -20.5t80 -44.5q-28 -68 -104.5 -220.5t-115 -259.5t-38.5 -204q0 -51 11.5 -92t22.5 -64.5t11 -32.5q0 -3 -2 -5t-4 -2l-2 -1q-28 0 -88 24t-106 56q-35 29 -50.5 76t-15.5 90q0 44 10 74q-10 1 -52.5 -51t-95.5 -123t-67 -88q-57 -61 -88 -64q-70 3 -138.5 47.5 t-84.5 112.5zM778 1239q0 188 119 195q29 -3 74.5 -31t64.5 -60q0 -1 -32.5 -52t-70.5 -107t-50 -66q-84 37 -105 121zM1047 1194q0 190 114 195q26 -2 73 -30.5t69 -60.5q0 -8 -67.5 -108.5t-90.5 -112.5q-71 27 -98 117z" />
<glyph unicode="&#xfd;" horiz-adv-x="1001" d="M-193 -598q0 25 29 43q48 -43 74.5 -55.5t71.5 -12.5q233 0 438 263t321 706q-215 -340 -346 -387q-45 2 -91.5 21t-84.5 56t-49 83q0 101 18 174q28 112 79 239.5t129.5 253.5t158.5 185q43 0 98.5 -16t87.5 -48q-33 -29 -109 -155t-157 -318q-25 -60 -55.5 -165.5 t-30.5 -153.5q0 -23 14 -37q40 7 103 64.5t135 164.5q71 107 180.5 309.5t165.5 294.5q54 0 117 -21t82 -44q-148 -314 -217 -529q-94 -305 -196 -503t-249 -351q-193 -202 -395 -202q-101 0 -196 42t-126 99zM731 1126q91 34 194 136t189 243q43 -26 81 -101t38 -132 q-158 -105 -241.5 -145t-147.5 -40q-65 0 -113 39z" />
<glyph unicode="&#xfe;" horiz-adv-x="1019" d="M2 -469q0 89 55.5 290t143.5 423q89 225 161.5 425t75.5 208q118 291 235.5 518.5t200.5 304.5q42 -6 117.5 -51.5t93.5 -77.5q-119 -98 -272 -392t-258 -610q45 75 154 189q156 162 258 162q78 0 128 -43.5t50 -110.5q0 -147 -50 -291.5t-141 -261.5 q-71 -91 -180.5 -159t-187.5 -68q-37 0 -65.5 15t-37.5 38q159 94 296 326t186 493q-82 -44 -144 -93t-121 -122q-152 -189 -191 -245t-79 -150q-58 -130 -143.5 -413t-157.5 -585q-24 3 -39 33q-32 34 -41 39q-12 3 -22 20.5t-11 41.5q-14 49 -14 147z" />
<glyph unicode="&#xff;" horiz-adv-x="1001" d="M-193 -598q0 25 29 43q48 -43 74.5 -55.5t71.5 -12.5q233 0 438 263t321 706q-215 -340 -346 -387q-45 2 -91.5 21t-84.5 56t-49 83q0 101 18 174q28 112 79 239.5t129.5 253.5t158.5 185q43 0 98.5 -16t87.5 -48q-33 -29 -109 -155t-157 -318q-25 -60 -55.5 -165.5 t-30.5 -153.5q0 -23 14 -37q40 7 103 64.5t135 164.5q71 107 180.5 309.5t165.5 294.5q54 0 117 -21t82 -44q-148 -314 -217 -529q-94 -305 -196 -503t-249 -351q-193 -202 -395 -202q-101 0 -196 42t-126 99zM729 1251q0 188 119 195q29 -3 74.5 -30.5t64.5 -59.5 q0 -1 -32.5 -52t-70.5 -107.5t-50 -66.5q-84 37 -105 121zM997 1206q0 190 115 195q27 -2 73 -30t68 -60q0 -8 -67 -108.5t-90 -112.5q-37 14 -62 45.5t-37 70.5z" />
<glyph unicode="&#x152;" horiz-adv-x="2002" d="M276 301q0 124 28 264t77 274t120 257.5t152.5 216t179 148t195.5 55.5q120 0 256 -103q8 41 16 62q73 -11 179 -11q202 0 444.5 22.5t257.5 22.5q47 0 83.5 -54.5t55.5 -154.5q-115 11 -174 11q-156 0 -397 -37q-36 -55 -201 -424q169 22 238 22q68 0 105.5 -36.5 t37.5 -102.5q0 -36 -10 -63q-58 10 -137 10q-38 0 -84.5 -4t-79.5 -9t-85.5 -13t-76.5 -11q-91 -211 -151.5 -392.5t-63.5 -244.5q369 75 690 96q54 -78 54 -163q0 -33 -5 -56q-152 4 -286 4q-137 0 -249.5 -11t-285.5 -42q-63 26 -129 105q-187 -111 -366 -111 q-188 0 -288 121t-100 352zM522 248q0 -316 209 -316q104 0 250 91q83 176 250 614q-109 22 -141 106q23 23 204 62q61 162 89.5 249t50.5 189q-89 9 -127 72q-9 0 -26 1t-24 1q-91 0 -184 -45.5t-173 -123t-150.5 -183t-120 -223t-78.5 -246t-29 -248.5z" />
<glyph unicode="&#x153;" horiz-adv-x="1484" d="M184 260q0 164 94.5 341.5t239.5 283.5q113 84 211 84q66 -35 129 -146q6 0 18.5 1t18.5 1q89 0 104 -133q97 119 213 191.5t222 72.5q58 0 98.5 -23t97.5 -89q-12 -233 -158.5 -372.5t-457.5 -223.5q-8 -50 -8 -82q0 -109 77 -143q106 26 217 81.5t181 118.5 q18 -18 30 -39q-104 -110 -222 -181t-216 -81q-96 22 -165.5 81.5t-92.5 139.5q-153 -165 -375 -215q-117 12 -186.5 103t-69.5 229zM379 158q0 -50 16.5 -95t36.5 -51q184 40 303 218.5t119 416.5q0 93 -27 137q-154 -45 -282 -211q-70 -94 -118 -213.5t-48 -201.5z M1038 326q173 64 296.5 186t144.5 258q-114 -5 -244.5 -133.5t-196.5 -310.5z" />
<glyph unicode="&#x178;" horiz-adv-x="1255" d="M428 1456q40 15 154.5 32.5t195.5 20.5q0 -149 70 -450.5t115 -351.5q299 329 501 780q53 -6 102 -28t79 -52q-235 -282 -376.5 -463t-260.5 -356q-65 -223 -106.5 -424t-41.5 -314q-45 0 -172.5 30.5t-142.5 45.5q25 43 50 100t54.5 142t45 131t49.5 155.5t40 127.5 q-118 366 -202.5 581t-153.5 293zM1001 1614q0 187 119 194q29 -3 75 -31t65 -59q0 -1 -28.5 -35.5t-62 -72.5t-43.5 -45q-108 19 -125 49zM1270 1614q0 189 114 194q27 -2 73.5 -30t68.5 -60q0 -7 -58.5 -77t-78.5 -78q-92 12 -119 51z" />
<glyph unicode="&#x2c6;" horiz-adv-x="657" d="M41 1192q165 58 293 209l-6 33q42 28 125 28q43 0 57 -2q14 -186 37 -278.5t69 -139.5q-4 -2 -18 -2q-53 0 -111 59.5t-102 153.5q-58 -52 -121 -83t-112 -31q-61 0 -111 53z" />
<glyph unicode="&#x2dc;" horiz-adv-x="755" d="M74 1278q95 -33 188 -33q148 0 350 96q23 -25 42 -80t28 -104q-172 -61 -315 -61q-120 0 -199.5 53.5t-93.5 128.5z" />
<glyph unicode="&#x2000;" horiz-adv-x="904" />
<glyph unicode="&#x2001;" horiz-adv-x="1808" />
<glyph unicode="&#x2002;" horiz-adv-x="904" />
<glyph unicode="&#x2003;" horiz-adv-x="1808" />
<glyph unicode="&#x2004;" horiz-adv-x="602" />
<glyph unicode="&#x2005;" horiz-adv-x="452" />
<glyph unicode="&#x2006;" horiz-adv-x="301" />
<glyph unicode="&#x2007;" horiz-adv-x="301" />
<glyph unicode="&#x2008;" horiz-adv-x="226" />
<glyph unicode="&#x2009;" horiz-adv-x="361" />
<glyph unicode="&#x200a;" horiz-adv-x="100" />
<glyph unicode="&#x2010;" horiz-adv-x="1077" d="M279 516q0 20 12 62q51 -9 145 -9q163 0 360.5 20.5t209.5 20.5q39 0 69 -47.5t43 -134.5q-85 10 -141 10q-127 0 -306.5 -28.5t-252.5 -28.5q-63 0 -101 36t-38 99z" />
<glyph unicode="&#x2011;" horiz-adv-x="1077" d="M279 516q0 20 12 62q51 -9 145 -9q163 0 360.5 20.5t209.5 20.5q39 0 69 -47.5t43 -134.5q-85 10 -141 10q-127 0 -306.5 -28.5t-252.5 -28.5q-63 0 -101 36t-38 99z" />
<glyph unicode="&#x2012;" horiz-adv-x="1077" d="M279 516q0 20 12 62q51 -9 145 -9q163 0 360.5 20.5t209.5 20.5q39 0 69 -47.5t43 -134.5q-85 10 -141 10q-127 0 -306.5 -28.5t-252.5 -28.5q-63 0 -101 36t-38 99z" />
<glyph unicode="&#x2013;" horiz-adv-x="1210" d="M276 516q0 12 15 64q70 -11 168 -11q191 0 419 20.5t242 20.5q45 0 79.5 -47.5t51.5 -134.5q-100 10 -164 10q-148 0 -356.5 -28.5t-292.5 -28.5q-74 0 -118 36t-44 99z" />
<glyph unicode="&#x2014;" horiz-adv-x="1277" d="M279 516q0 15 14 64q78 -11 180 -11q204 0 449 20.5t258 20.5q48 0 85 -47.5t54 -134.5q-105 10 -174 10q-157 0 -380 -28.5t-314 -28.5q-79 0 -125.5 36t-46.5 99z" />
<glyph unicode="&#x2018;" horiz-adv-x="464" d="M465 1223q77 341 342 481q12 -11 22.5 -34.5t10.5 -43.5q-97 -164 -97 -369q0 -73 13 -180q-104 6 -191.5 50.5t-99.5 95.5z" />
<glyph unicode="&#x2019;" horiz-adv-x="399" d="M459 1155q96 162 96 369q0 81 -12 180q104 -6 191.5 -50t99.5 -95q-78 -342 -342 -482q-12 11 -22.5 34.5t-10.5 43.5z" />
<glyph unicode="&#x201a;" horiz-adv-x="491" d="M2 -268q101 88 146 168t45 174q0 101 -25 207q104 -6 192 -50.5t99 -95.5q-95 -340 -424 -481q-12 11 -22.5 34.5t-10.5 43.5z" />
<glyph unicode="&#x201c;" horiz-adv-x="866" d="M459 1225q95 340 424 481q12 -11 22 -34.5t10 -43.5q-101 -88 -145.5 -168t-44.5 -174q0 -101 25 -207q-104 6 -192 50.5t-99 95.5zM868 1225q95 340 424 481q12 -11 22.5 -34.5t10.5 -43.5q-101 -88 -145.5 -168t-44.5 -174q0 -106 24 -207q-104 6 -192 50.5t-99 95.5z " />
<glyph unicode="&#x201d;" horiz-adv-x="843" d="M432 1157q101 88 146 168t45 174q0 101 -25 207q104 -6 192 -50t99 -95q-95 -341 -424 -482q-12 11 -22.5 34.5t-10.5 43.5zM842 1157q101 88 145.5 168t44.5 174q0 106 -24 207q104 -6 191.5 -50t98.5 -95q-95 -341 -424 -482q-12 11 -22 34.5t-10 43.5z" />
<glyph unicode="&#x201e;" horiz-adv-x="901" d="M2 -268q101 88 146 168t45 174q0 101 -25 207q104 -6 192 -50.5t99 -95.5q-95 -340 -424 -481q-12 11 -22.5 34.5t-10.5 43.5zM412 -268q101 88 145.5 168t44.5 174q0 106 -24 207q104 -6 191.5 -50.5t98.5 -95.5q-95 -340 -424 -481q-12 11 -22 34.5t-10 43.5z" />
<glyph unicode="&#x2022;" horiz-adv-x="692" d="M383 559q0 26 9 73.5t18 81t24 88.5t15 56q57 0 157 -52.5t139 -113.5q-36 -85 -114.5 -153t-122.5 -68q-37 5 -76.5 31.5t-48.5 56.5z" />
<glyph unicode="&#x2026;" horiz-adv-x="1443" d="M141 2q0 30 11 82.5t29.5 120t19.5 69.5q52 0 143 -48t127 -103q-33 -77 -104 -139t-111 -62q-34 5 -70 29t-45 51zM616 2q0 30 11 82.5t29.5 120t19.5 69.5q52 0 143 -48t127 -103q-33 -77 -104 -139t-111 -62q-34 5 -70 29t-45 51zM1092 2q0 24 8 65.5t16.5 76.5 t20.5 78t14 52q52 0 143 -48t127 -103q-33 -77 -104 -139t-111 -62q-34 5 -69.5 29t-44.5 51z" />
<glyph unicode="&#x202f;" horiz-adv-x="361" />
<glyph unicode="&#x2039;" horiz-adv-x="1155" d="M236 569q19 21 64 40t86 30t110.5 28.5t101.5 26.5q142 40 253 96t316 183q56 -24 106 -88.5t50 -106.5q0 -53 -63 -129q-14 27 -46 27q-26 0 -102 -17q-105 -24 -375 -115t-284 -95q19 -35 57.5 -64t142.5 -84q88 -48 285 -111q9 -3 41.5 -12t36.5 -10q-1 -17 -18.5 -36 t-34.5 -26q-174 40 -291.5 78.5t-229.5 104.5q-105 62 -161 149q-43 70 -45 131z" />
<glyph unicode="&#x203a;" horiz-adv-x="1153" d="M199 193q0 44 46 81.5t124 63.5q392 130 659 211q-19 34 -57.5 62.5t-143.5 84.5q-104 56 -236.5 94t-248.5 39q1 18 19 39t34 27q89 0 173 -14t170.5 -44.5t145 -56t154.5 -71.5q50 -30 91.5 -65.5t77 -94t38.5 -121.5q-19 -21 -64 -40t-86 -30t-110.5 -28.5 t-101.5 -26.5q-143 -41 -255 -96.5t-315 -181.5q-114 90 -114 168z" />
<glyph unicode="&#x205f;" horiz-adv-x="452" />
<glyph unicode="&#x20ac;" horiz-adv-x="1488" d="M260 504q0 32 8 59q90 -12 146 -12h98q7 68 33 166h-51q-68 0 -102 33t-34 88q0 29 9 59q90 -12 145 -12h92q120 276 340.5 451t470.5 175q140 0 219.5 -59.5t79.5 -165.5q0 -80 -44.5 -169.5t-113.5 -147.5q-52 7 -92 47t-49 94q72 59 114 123.5t42 118.5 q0 43 -29.5 66.5t-83.5 23.5q-92 0 -198 -73t-189 -193q-87 -126 -153 -267q162 17 163 17q88 0 113 -160q-85 10 -141 10q-77 0 -195 -12q-26 -72 -49 -191q127 19 174 19q88 0 113 -160q-85 10 -142 10q-81 0 -166 -10q-2 -31 -2 -94q0 -149 46.5 -242t125.5 -110 q88 20 225 112.5t294 239.5q20 -20 24 -43q-117 -157 -249 -281.5t-234 -173.5q-251 5 -382 144.5t-134 404.5q-56 -6 -107 -6q-68 0 -101.5 33t-33.5 88z" />
<glyph unicode="&#x2122;" horiz-adv-x="1206" d="M563 1389q0 1 12 36q27 -12 70 -12q47 0 141 8.5t101 8.5q51 0 65 -80q-41 4 -75 4q-48 0 -66 -2q-50 -97 -87 -225.5t-48 -211.5q-68 9 -98 62q1 4 42.5 117.5t79.5 240.5q-25 -2 -69 -2q-31 0 -49.5 16t-18.5 40zM829 969q0 44 112.5 234t174.5 227q20 0 61 -20t46 -30 q-43 -88 -64 -202q44 84 96 155.5t86 96.5q21 0 63.5 -20t47.5 -30q-44 -77 -61 -209t-17 -247q-27 0 -63.5 9.5t-44.5 22.5q0 159 71 390q-52 -56 -116 -194.5t-76 -227.5q-38 0 -70 9t-39 25q1 49 14.5 112t35 144t30.5 127q-62 -87 -129 -217t-74 -209q-84 24 -84 54z " />
<glyph unicode="&#xe000;" horiz-adv-x="972" d="M0 0v973h973v-973h-973z" />
</font>
</defs>
</svg>
